<svg width="786" height="236" viewBox="0 0 786 236" fill="none" xmlns="http://www.w3.org/2000/svg">
<path d="M-16.9075 234.791C-16.7807 234.791 -16.654 234.791 -3.92443 224.966C8.80512 215.141 34.1336 195.491 61.7482 176.786C89.3628 158.081 118.496 140.916 147.178 126.424C175.859 111.933 203.207 100.634 231.201 91.4506C259.196 82.267 287.01 75.5405 307.803 71.3058C328.597 67.0711 341.527 65.532 358.652 65.1783C422.088 63.8679 434.747 74.169 442.619 79.7068C446.572 82.4877 448.523 86.8446 449.789 91.0148C450.493 93.3342 450.43 96.2917 449.373 98.3511C447.267 102.456 440.699 102.704 434.977 102.277C429.737 101.886 425.854 98.6241 423.968 95.6502C423.158 94.3745 424.693 92.7486 471.494 83.3933C518.295 74.0379 610.839 56.7916 664.409 45.9822C717.979 35.1728 729.771 31.323 739.373 27.5031C765.556 14.5277 773.626 7.58906 779.609 1.09368C782.11 -1.90943 783.522 -4.31758 784.977 -7.28564" stroke="#C80A14" stroke-width="2" stroke-linecap="round"/>
</svg>
