<svg width="133" height="324" viewBox="0 0 133 324" fill="none" xmlns="http://www.w3.org/2000/svg">
<path d="M161.895 -205.192C149.248 -204.759 113.133 -198.448 82.2875 -180.995C65.3853 -171.431 54.4342 -150.893 41.6777 -122.97C33.3416 -104.722 24.7413 -76.689 17.3157 -46.2362C9.89008 -15.7834 4.79905 16.6249 2.45116 48.4993C0.103275 80.3737 0.652811 110.732 3.74907 135.114C9.13671 177.539 21.6568 201.221 31.3407 215.634C56.4495 253.006 88.1956 265.347 116.033 275.595C129.232 280.454 142.762 280.772 154.661 281.23C165.888 281.662 177.6 275.246 193.188 259.498C217.292 235.148 233.954 204.855 244.378 181.341C253.63 160.471 258.233 126.404 262.461 85.9746C265.42 57.6759 263.03 41.3754 260.254 31.5901C254.41 10.9958 223.654 -4.42497 191.278 -17.6546C181.387 -21.6964 167.188 -20.7883 152.099 -19.48C146.399 -18.9858 144.965 -16.6684 136.026 2.51121C127.087 21.6908 110.76 58.2164 101.421 80.4409C92.0821 102.665 90.2257 109.482 89.3077 126.662C88.3898 143.842 88.4667 171.18 93.9162 194.16C104.046 236.878 129.05 262.17 144.737 279.115C176.498 305.009 199.415 314.577 215.836 318.151C224.695 319.834 234.621 321.252 244.847 322.712" stroke="#0B5729" stroke-width="2" stroke-linecap="round"/>
</svg>
