<svg width="1920" height="906" viewBox="0 0 1920 906" fill="none" xmlns="http://www.w3.org/2000/svg">
<path d="M-273.551 904.419C-273.551 903.265 -266.263 893.842 -228.142 858.897C-198.356 831.592 -143.149 789.643 -75.5473 744.452C-7.94507 699.26 71.4591 653.322 153.103 613.988C234.746 574.654 316.223 543.316 530.987 483.874C745.751 424.432 1091.33 337.836 1311.35 274.881C1531.37 211.927 1615.36 175.239 1672.65 147.468C1759.69 105.278 1791.92 79.2841 1800.9 70.7406C1808.45 63.559 1811.78 54.8303 1811.47 48.171C1811.33 45.1636 1805.49 44.6586 1801.74 45.6406C1798 46.6227 1795.04 49.5537 1793.55 53.1992C1792.06 56.8447 1792.12 61.1158 1797.65 64.636C1803.18 68.1562 1814.18 70.7962 1872.7 72.0482C1931.21 73.3003 2036.92 73.0845 2108.31 67.8992C2214.41 60.193 2263.36 34.7271 2288.59 21.8597C2298.95 16.3751 2304.32 13.0124 2308.87 9.86981C2313.42 6.72722 2316.99 3.90659 2323.86 1.00049" stroke="#539635" stroke-width="2" stroke-linecap="round"/>
</svg>
