<svg class="map__scheme" width="1522" height="836" viewBox="0 0 1522 836" fill="none" xmlns="http://www.w3.org/2000/svg">
  <g id="Group 37588">
    <g id="figure 4" class="figure figure_4">
      <rect id="Rectangle 378" x="476.117" y="320.117" width="67.7658" height="78.7658" fill="#0B5729" stroke="white" stroke-width="4.2342"/>
      <path id="4" d="M511.401 364.51H509.623V362.308H506.659V360.784L508.996 352.654H510.859L508.572 360.614H509.623V359.09L511.401 358.751V360.614H512.078V362.308H511.401V364.51Z" fill="white"/>
    </g>
    <g id="figure 2" class="figure figure_2">
      <rect id="Rectangle 378_2" x="614.874" y="461.696" width="87.2344" height="131.061" fill="#539635" stroke="white" stroke-width="4.2342"/>
      <path id="2" d="M662.044 523.063V525.909L658.995 531.921V532.446H662.044V534.14H657.217V531.684L660.265 525.671V523.978H658.995V525.671H657.217V523.063C657.217 522.606 657.521 522.284 657.996 522.284H661.264C661.739 522.284 662.044 522.606 662.044 523.063Z" fill="white"/>
    </g>
    <g id="figure 3" class="figure figure_3">
      <rect id="Rectangle 378_3" x="348.117" y="473.117" width="99.7658" height="46.7658" rx="23.3829" fill="#0B5729" stroke="white" stroke-width="4.2342"/>
      <path id="3" d="M398.729 503.205H395.46C394.986 503.205 394.681 502.883 394.681 502.425V499.309H396.459V501.511H397.73V497.311H395.951V495.735L397.56 493.043H394.766V491.349H399.423V492.873L397.797 495.617H398.729C399.203 495.617 399.508 495.939 399.508 496.396V502.425C399.508 502.883 399.203 503.205 398.729 503.205Z" fill="white"/>
    </g>
    <g id="figure 1" class="figure figure_1">
      <rect id="Rectangle 378_4" x="336.117" y="553.117" width="184.766" height="58.7658" fill="#0B5729" stroke="white" stroke-width="4.2342"/>
      <path id="1" d="M425.452 577.796V576.103H427.992V587.958H426.214V577.796H425.452Z" fill="white"/>
    </g>
  </g>
</svg>
