<svg width="331" height="287" viewBox="0 0 331 287" fill="none" xmlns="http://www.w3.org/2000/svg">
<path d="M-44.312 1.18143C-44.312 0.898621 -36.3226 0.752931 -19.2983 2.2634C0.0354652 3.97876 22.6673 15.8934 49.3664 29.5173C78.3366 44.3 100.591 64.6322 114.896 79.7626C123.059 88.3965 125.563 94.3551 126.71 98.6362C127.225 100.56 125.963 102.24 125.848 101.888C125.733 101.535 126.385 99.1656 127.838 97.5399C137.925 86.2528 173.077 99.4806 201.068 115.43C218.727 125.491 235.758 142.085 254.94 161.523C265.493 172.216 275.935 186.271 286.177 201.358C296.419 216.444 305.692 232.564 312.884 246.786C320.077 261.008 324.908 272.843 329.886 285.037" stroke="#0B5729" stroke-width="2" stroke-linecap="round"/>
</svg>
