<?xml version="1.0" standalone="no"?>
<!DOCTYPE svg PUBLIC "-//W3C//DTD SVG 20010904//EN"
 "http://www.w3.org/TR/2001/REC-SVG-20010904/DTD/svg10.dtd">
<svg version="1.0" xmlns="http://www.w3.org/2000/svg"
 width="700.000000pt" height="700.000000pt" viewBox="0 0 700.000000 700.000000"
 preserveAspectRatio="xMidYMid meet">
<metadata>
Created by potrace 1.14, written by Peter Selinger 2001-2017
</metadata>
<g transform="translate(0.000000,700.000000) scale(0.100000,-0.100000)"
fill="#000000" stroke="none">
<path d="M735 6993 c-217 -46 -346 -108 -473 -227 -89 -83 -171 -211 -214
-336 -50 -144 -48 12 -45 -2955 3 -2505 4 -2775 19 -2825 52 -179 115 -289
229 -401 123 -122 241 -187 419 -230 46 -12 529 -14 2825 -14 3024 0 2822 -4
2975 58 265 107 439 317 517 622 4 17 9 1272 10 2790 2 2449 1 2768 -13 2835
-68 332 -291 568 -629 667 -57 17 -220 18 -2830 19 -1524 1 -2779 0 -2790 -3z"/>
</g>
</svg>
