<svg width="1920" height="294" viewBox="0 0 1920 294" fill="none" xmlns="http://www.w3.org/2000/svg">
<path d="M1054.47 155.495C1054.47 155.959 1046.26 156.198 973.043 172.034C907.653 186.178 786.503 219.542 662.105 242.643C537.707 265.743 414.133 279.312 327.808 286.302C241.483 293.292 196.15 293.292 166.552 292.659C136.954 292.027 124.463 290.763 87.9971 281.441C51.5307 272.119 -8.53311 254.777 -72.9609 235.261" stroke="#0B5729" stroke-width="2" stroke-linecap="round"/>
<path d="M1305.12 128.128C1305.52 128.128 1305.93 128.128 1341.55 111.577C1377.17 95.0258 1447.99 61.924 1498.17 41.1255C1574.46 9.50867 1609.92 4.13908 1625.17 2.65957C1634.46 1.75875 1647.01 2.15654 1653.46 3.74419C1659.9 5.33184 1659.9 8.50714 1658.58 11.6076C1653.07 24.5093 1630.53 30.9284 1588.46 50.5292C1561.94 62.885 1515.81 90.3719 1488.76 104.534C1456.5 121.425 1446.72 122.046 1440.54 122.637C1437.49 122.928 1434.59 122.838 1432.97 121.113C1431.35 119.388 1431.1 115.939 1435.36 111.958C1439.62 107.977 1448.4 103.569 1502.39 86.7843C1556.37 69.9998 1655.3 40.9725 1716.25 24.2417C1796.69 2.15796 1823.94 0.293848 1834.39 1.16495C1841.27 1.73823 1846.2 7.06957 1896.66 14.3947C1943.91 20.2236 2035.09 30.3396 2083.37 36.1375C2131.66 41.9353 2134.3 43.1085 2137.76 44.3172" stroke="#0B5729" stroke-width="2" stroke-linecap="round"/>
</svg>
