<svg width="124" height="124" viewBox="0 0 124 124" fill="none" xmlns="http://www.w3.org/2000/svg">
<rect width="124" height="124" rx="15" fill="#0A48A4"/>
<path d="M58.576 13.0296C57.7903 12.7229 56.493 14.8337 55.6718 17.7399C55.3997 18.6881 55.2082 19.6588 55.0992 20.6409C54.9845 19.6597 54.793 18.6895 54.5264 17.7399C53.7054 14.8337 52.4027 12.7229 51.617 13.0296C50.8316 13.3363 50.877 15.941 51.6983 18.8525C52.5193 21.7639 53.8169 23.8695 54.6023 23.5679C54.8559 23.4639 55.013 23.1 55.1093 22.5749C55.1903 23.0948 55.3474 23.4639 55.616 23.5679C56.4017 23.8695 57.6992 21.7639 58.5203 18.8525C59.3413 15.941 59.382 13.3416 58.6013 13.0296" fill="white"/>
<path d="M58.576 21.9968C57.7903 21.69 56.493 23.8059 55.6718 26.7066C55.3997 27.6548 55.2082 28.6254 55.0992 29.6074C54.9845 28.6263 54.793 27.6562 54.5264 26.7066C53.7054 23.8059 52.4027 21.6848 51.617 21.9968C50.8316 22.3087 50.877 24.9079 51.6983 27.8191C52.5193 30.7303 53.8169 32.8357 54.6023 32.5342C54.8559 32.4303 55.013 32.0664 55.1093 31.5413C55.1903 32.0612 55.3474 32.4303 55.616 32.5342C56.4017 32.8357 57.6992 30.7303 58.5203 27.8191C59.3413 24.9079 59.382 22.3087 58.6013 21.9968" fill="white"/>
<path d="M58.576 30.1836C57.7903 29.8769 56.493 31.9928 55.6718 34.899C55.4005 35.8385 55.2087 36.8006 55.0992 37.774C54.987 36.789 54.7955 35.8153 54.5264 34.8626C53.7054 31.9565 52.4027 29.8405 51.617 30.1472C50.8316 30.454 50.877 33.0586 51.6983 35.9752C52.5193 38.8917 53.8169 40.9871 54.6023 40.6854C54.8559 40.5814 55.013 40.2176 55.1093 39.6976C55.1903 40.2176 55.3474 40.5814 55.616 40.6854C56.4017 40.9871 57.6992 38.8813 58.5203 35.9752C59.3413 33.069 59.382 30.4592 58.6013 30.1472" fill="white"/>
<path d="M44.7955 39.1135C44.0144 38.8068 42.7158 40.9226 41.889 43.8285C41.6185 44.775 41.4286 45.7438 41.3209 46.724C41.2074 45.7441 41.014 44.7755 40.7425 43.8285C39.9209 40.9226 38.6223 38.8068 37.8363 39.1135C37.05 39.4202 37.0906 42.0247 37.9123 44.941C38.7339 47.8573 40.0376 49.9576 40.8187 49.6509C41.0774 49.5468 41.2347 49.183 41.3258 48.6631C41.402 49.183 41.5644 49.5468 41.8332 49.6509C42.6143 49.9576 43.9178 47.8469 44.7397 44.941C45.5613 42.0351 45.6019 39.4202 44.7955 39.1135Z" fill="white"/>
<path d="M44.1133 48.7164C43.3591 48.3256 41.8863 50.3996 40.8234 53.3483C40.4772 54.3082 40.208 55.2983 40.0185 56.3075C39.9945 55.2774 39.8912 54.2512 39.7098 53.2396C39.1378 50.1391 38.0244 47.8097 37.2195 48.0702C36.4148 48.3309 36.2072 51.0297 36.7995 54.1354C37.3916 57.2414 38.4849 59.5655 39.2898 59.3048C39.5529 59.2288 39.7402 58.8649 39.8667 58.3274C39.9072 58.8705 40.0337 59.2723 40.2767 59.4135C41.0309 59.8098 42.5037 57.7356 43.5668 54.7871C44.6297 51.8387 44.8879 49.1291 44.1386 48.7327" fill="white"/>
<path d="M42.7708 60.0314C42.2168 59.4236 40.1821 60.7642 38.2381 63.0608C37.6038 63.7979 37.0357 64.5928 36.5407 65.4357C36.8526 64.4934 37.0851 63.525 37.2357 62.5414C37.6889 59.5534 37.3818 57.0747 36.5508 57.0176C35.7197 56.9603 34.6822 59.3249 34.234 62.3283C33.7857 65.3317 34.088 67.7897 34.919 67.8521C35.1909 67.8521 35.483 67.6079 35.7701 67.1713C35.6291 67.691 35.6241 68.0806 35.8104 68.2781C36.3896 68.8965 38.4242 67.5506 40.3433 65.2693C42.2621 62.9881 43.3651 60.6445 42.7959 60.0314" fill="white"/>
<path d="M37.1858 69.9489C36.765 69.1726 34.3561 69.9489 31.8103 71.7114C30.9804 72.2759 30.2007 72.9144 29.4803 73.6193C30.028 72.7636 30.5048 71.862 30.9056 70.9243C32.1417 68.057 32.4836 65.486 31.663 65.195C30.8425 64.9037 29.1752 67.0004 27.9339 69.8787C26.6926 72.757 26.356 75.3118 27.1817 75.5976C27.45 75.6945 27.8129 75.5167 28.2337 75.1555C27.9602 75.6298 27.8497 76.0232 27.9865 76.2768C28.4073 77.0581 30.811 76.2768 33.3567 74.525C35.9024 72.7733 37.6277 70.752 37.2068 69.9489" fill="white"/>
<path d="M28.3514 78.9128C28.211 78.0569 25.7205 77.9514 22.7778 78.691C21.8141 78.9218 20.8727 79.2401 19.965 79.6418C20.7608 79.0411 21.5052 78.3732 22.1902 77.6449C24.2699 75.4261 25.4502 73.1758 24.7899 72.6264C24.1296 72.0771 21.8835 73.4346 19.783 75.6533C17.6825 77.8721 16.5283 80.1224 17.1834 80.6666C17.4017 80.8515 17.7969 80.8094 18.2908 80.6191C17.8801 80.9572 17.6461 81.2848 17.6929 81.5646C17.8281 82.4259 20.3185 82.5314 23.2613 81.7972C26.2041 81.0627 28.4605 79.7687 28.3461 78.9023" fill="white"/>
<path d="M58.3065 87.034C57.9283 86.2887 55.5245 86.9175 52.9395 88.4436C52.0976 88.939 51.3004 89.504 50.5566 90.1318C51.1358 89.3549 51.6454 88.5305 52.0796 87.6677C53.4264 85.0262 53.8771 82.628 53.0846 82.3188C52.2919 82.0095 50.5566 83.9008 49.2045 86.5472C47.8524 89.1938 47.412 91.582 48.2045 91.8912C48.4637 91.9927 48.8313 91.8404 49.2406 91.5211C48.9453 91.9521 48.821 92.3221 48.9453 92.5655C49.3234 93.316 51.7272 92.6873 54.3072 91.1612C56.8869 89.6351 58.6794 87.7894 58.3012 87.034" fill="white"/>
<path d="M51.0189 94.9853C50.6884 94.1874 48.1305 94.6203 45.2961 95.9606C44.3712 96.3869 43.4863 96.8895 42.6515 97.4629C43.3277 96.7159 43.937 95.915 44.4723 95.0687C46.0983 92.4609 46.8137 90.0669 46.0114 89.6756C45.2094 89.2845 43.2314 91.0787 41.5786 93.6709C39.9255 96.2632 39.2375 98.6729 40.0339 99.0589C40.2996 99.1892 40.6897 99.0589 41.1557 98.772C40.8089 99.1892 40.6138 99.5544 40.7493 99.8152C41.0746 100.618 43.6378 100.186 46.4721 98.845C49.3065 97.5044 51.3494 95.7728 51.0189 94.9696" fill="white"/>
<path d="M39.6967 102.567C39.6347 101.737 37.1762 101.429 34.2065 101.879C33.2347 102.022 32.2774 102.248 31.3452 102.552C32.1825 102.052 32.974 101.481 33.7106 100.847C35.978 98.9045 37.3259 96.8607 36.7062 96.294C36.0864 95.7276 33.7623 96.7999 31.4949 98.7578C29.2276 100.716 27.8796 102.739 28.5045 103.311C28.7059 103.503 29.1036 103.498 29.6098 103.356C29.1708 103.645 28.9125 103.938 28.9332 104.211C28.9951 105.046 31.4536 105.354 34.4234 104.899C37.3932 104.444 39.7638 103.382 39.7017 102.572" fill="white"/>
<path d="M28.3433 108.98C28.5073 108.169 26.1575 107.247 23.0933 106.935C22.0935 106.83 21.0861 106.804 20.0819 106.86C21.048 106.591 21.9868 106.241 22.8869 105.812C25.6494 104.522 27.5335 102.89 27.0837 102.18C26.6338 101.47 24.03 101.938 21.2621 103.233C18.4942 104.527 16.6207 106.144 17.0653 106.865C17.2134 107.102 17.5945 107.192 18.1502 107.187C17.621 107.353 17.3034 107.57 17.2505 107.837C17.0864 108.658 19.4309 109.575 22.4952 109.892C25.5595 110.21 28.1845 109.802 28.3485 108.98" fill="white"/>
<path d="M54.2067 68.2284C53.6925 67.5351 51.4667 68.6121 49.2201 70.6343C48.486 71.2898 47.8084 72.0086 47.1948 72.7829C47.6159 71.8871 47.9598 70.9554 48.2228 69.9987C49.0659 67.0624 49.0712 64.5358 48.2228 64.3624C47.3746 64.1891 46.0381 66.4321 45.2002 69.3735C44.3622 72.3152 44.352 74.8158 45.2002 74.9996C45.4778 75.0573 45.8068 74.8367 46.1564 74.4375C45.9455 74.9261 45.889 75.3253 46.0536 75.5512C46.5675 76.2499 48.7935 75.1783 51.0347 73.1558C53.2761 71.1333 54.7 68.9534 54.1962 68.2284" fill="white"/>
<path d="M47.7288 77.7579C47.2667 77.0117 44.844 77.8965 42.3246 79.7407C41.5023 80.3468 40.7331 81.0208 40.0255 81.7556C40.5462 80.8859 40.9935 79.9749 41.3631 79.032C42.4966 76.1375 42.7274 73.5898 41.9002 73.3393C41.0729 73.0888 39.4452 75.2263 38.3065 78.1363C37.1675 81.0467 36.9364 83.5786 37.7691 83.8291C38.0486 83.9091 38.4137 83.7172 38.8113 83.3388C38.5535 83.8185 38.4569 84.2182 38.6073 84.4635C39.0747 85.2149 41.4919 84.3301 44.0113 82.4858C46.5308 80.6416 48.1962 78.5469 47.734 77.7952" fill="white"/>
<path d="M38.8778 86.4117C38.662 85.6013 36.1391 85.7281 33.2371 86.6901C32.2915 87.0011 31.3753 87.3892 30.4983 87.8499C31.2427 87.2093 31.9298 86.5097 32.5524 85.7583C34.4642 83.4541 35.4333 81.2005 34.7065 80.7396C33.9797 80.2786 31.8519 81.7525 29.9348 84.077C28.0176 86.4014 27.0591 88.635 27.7806 89.0908C28.0176 89.2426 28.4126 89.1666 28.8972 88.9387C28.5074 89.3034 28.302 89.6376 28.3705 89.901C28.5917 90.7114 31.1145 90.5898 34.0113 89.6224C36.9081 88.6552 39.0885 87.2271 38.8778 86.4117Z" fill="white"/>
<path d="M28.3359 94.9539C28.3359 94.0895 25.9171 93.5655 22.9144 93.7804C21.9357 93.8494 20.9642 94.0001 20.0099 94.2308C20.885 93.7806 21.7202 93.2549 22.5061 92.6591C24.93 90.8567 26.4236 88.8761 25.9068 88.2055C25.39 87.5348 22.9299 88.499 20.5009 90.3014C18.0718 92.1038 16.5472 94.1157 17.1209 94.7705C17.3069 94.9854 17.6997 95.0117 18.2217 94.9068C17.7617 95.1741 17.4775 95.4307 17.4723 95.7345C17.4723 96.5991 19.8858 97.1282 22.8886 96.9082C25.8913 96.6883 28.3359 95.8185 28.3514 94.9539" fill="white"/>
<path d="M58.576 39.1135C57.7903 38.8068 56.493 40.9226 55.6718 43.8285C55.4 44.7751 55.2082 45.7439 55.0992 46.7241C54.9845 45.7446 54.793 44.7763 54.5264 43.8285C53.7054 40.9226 52.4027 38.8068 51.617 39.1135C50.8316 39.4202 50.877 42.0298 51.6983 44.941C52.5193 47.8523 53.8169 49.9576 54.6023 49.651C54.8559 49.5469 55.013 49.1884 55.1093 48.6632C55.1903 49.1831 55.3474 49.5469 55.616 49.651C56.4017 49.9576 57.6992 47.847 58.5203 44.941C59.3413 42.0351 59.382 39.4253 58.6013 39.1135" fill="white"/>
<path d="M58.576 48.0799C57.7903 47.7731 56.493 49.8847 55.6718 52.792C55.4 53.7391 55.2082 54.7083 55.0992 55.689C54.9845 54.7091 54.793 53.7403 54.5264 52.792C53.7054 49.8847 52.4027 47.7731 51.617 48.0799C50.8316 48.3867 50.877 50.9925 51.6983 53.9051C52.5193 56.8177 53.8169 58.9241 54.6023 58.6172C54.8559 58.5184 55.013 58.1542 55.1093 57.629C55.1903 58.1492 55.3474 58.5184 55.616 58.6172C56.4017 58.9241 57.6992 56.8124 58.5203 53.9051C59.3413 50.9978 59.382 48.3867 58.6013 48.0799" fill="white"/>
<path d="M58.5767 56.2313C57.7917 55.9243 56.4953 58.0368 55.675 60.9458C55.4033 61.8948 55.2117 62.8663 55.1028 63.8492C54.9882 62.8673 54.7969 61.8963 54.5305 60.9458C53.7102 58.0368 52.4087 55.9243 51.624 56.2313C50.839 56.5383 50.8643 59.1454 51.7049 62.0541C52.5455 64.9629 53.8216 67.0756 54.6065 66.7686C54.8597 66.6697 55.0167 66.3053 55.1128 65.7799C55.1938 66.3003 55.3508 66.6697 55.6194 66.7686C56.4041 67.0756 57.7005 64.9682 58.5207 62.0541C59.3412 59.1401 59.3817 56.5383 58.6019 56.226" fill="white"/>
<path d="M65.0646 72.534C64.2836 72.2273 62.9852 74.3377 62.1637 77.2439C61.8892 78.1897 61.6973 79.1588 61.5905 80.1394C61.4765 79.161 61.2831 78.1942 61.0124 77.2489C60.1906 74.343 58.8924 72.2324 58.1063 72.5391C57.3201 72.8457 57.3606 75.4503 58.1822 78.3615C59.004 81.2727 60.3073 83.378 61.0883 83.0714C61.347 82.9726 61.5042 82.6088 61.5956 82.0836C61.6716 82.6035 61.834 82.9726 62.1027 83.0714C62.8837 83.378 64.1873 81.2727 65.0089 78.3615C65.8304 75.4503 65.866 72.8457 65.085 72.5391" fill="white"/>
<path d="M65.0646 63.5672C64.2836 63.2605 62.9852 65.3713 62.1637 68.2827C61.8892 69.2285 61.6973 70.1976 61.5905 71.1784C61.4794 70.1979 61.2861 69.229 61.0124 68.2827C60.1906 65.3713 58.8924 63.2605 58.1063 63.5672C57.3201 63.8742 57.3606 66.4786 58.1822 69.3953C59.004 72.3117 60.3073 74.4068 61.0883 74.1054C61.347 74.0013 61.5042 73.6375 61.5956 73.1123C61.6716 73.6322 61.834 74.0013 62.1027 74.1054C62.8837 74.4068 64.1873 72.3013 65.0089 69.3953C65.8304 66.4889 65.866 63.8742 65.085 63.5672" fill="white"/>
<path d="M65.4215 13.0296C66.2021 12.7229 67.4999 14.8337 68.3262 17.7399C68.5966 18.6883 68.7866 19.6589 68.894 20.6409C69.0079 19.6591 69.2012 18.6888 69.472 17.7399C70.2932 14.8337 71.5809 12.7229 72.3767 13.0296C73.1726 13.3363 73.1218 15.941 72.3006 18.8525C71.4795 21.7639 70.1765 23.8695 69.3959 23.5679C69.1373 23.4639 68.9801 23.1 68.889 22.5749C68.8129 23.0948 68.6506 23.4639 68.382 23.5679C67.6013 23.8695 66.2986 21.7639 65.4772 18.8525C64.6561 15.941 64.6207 13.3416 65.4013 13.0296" fill="white"/>
<path d="M65.4218 21.9959C66.2028 21.6891 67.5012 23.8051 68.3279 26.7062C68.5984 27.6546 68.7886 28.6252 68.896 29.6072C69.01 28.6254 69.2033 27.6551 69.4743 26.7062C70.2959 23.8051 71.5943 21.6891 72.3805 21.9959C73.1664 22.3026 73.1259 24.9073 72.3043 27.8187C71.4828 30.7302 70.1792 32.8358 69.3981 32.5342C69.1394 32.4302 68.9822 32.0663 68.891 31.5412C68.8149 32.0611 68.6525 32.4302 68.3837 32.5342C67.6027 32.8358 66.2994 30.7302 65.4775 27.8187C64.656 24.9073 64.6206 22.3078 65.4016 21.9959" fill="white"/>
<path d="M65.4218 30.1836C66.2028 29.8769 67.5012 31.9928 68.3279 34.899C68.5984 35.8456 68.7886 36.8145 68.896 37.7947C69.007 36.8024 69.2004 35.8214 69.4743 34.8626C70.2959 31.9565 71.5943 29.8405 72.3805 30.1472C73.1664 30.454 73.1259 33.0586 72.3043 35.9752C71.4828 38.8917 70.1792 40.9871 69.3981 40.6854C69.1394 40.5814 68.9822 40.2176 68.891 39.6976C68.8149 40.2176 68.6525 40.5814 68.3837 40.6854C67.6027 40.9871 66.2994 38.8813 65.4775 35.9752C64.656 33.069 64.6206 30.4592 65.4016 30.1472" fill="white"/>
<path d="M79.2121 39.1135C79.9925 38.8068 81.2899 40.9226 82.1108 43.8285C82.3828 44.775 82.5743 45.7438 82.6835 46.724C82.7945 45.7436 82.9879 44.7748 83.2612 43.8285C84.0823 40.9226 85.3794 38.8068 86.165 39.1135C86.9505 39.4202 86.91 42.0247 86.084 44.941C85.2579 47.8573 83.9657 49.9576 83.1801 49.6509C82.9268 49.5468 82.7697 49.183 82.6735 48.6631C82.5922 49.183 82.4351 49.5468 82.1665 49.6509C81.3812 49.9576 80.0839 47.8469 79.2627 44.941C78.4418 42.0351 78.4013 39.4253 79.1869 39.1135" fill="white"/>
<path d="M79.0571 48.7164C79.8075 48.3256 81.2824 50.3996 82.3468 53.3483C82.6969 54.308 82.9697 55.298 83.1629 56.3075C83.1921 55.2771 83.3006 54.251 83.4872 53.2396C84.0601 50.1391 85.1802 47.8097 85.9811 48.0702C86.7818 48.3309 86.9694 51.0297 86.4017 54.1354C85.834 57.2414 84.7139 59.5655 83.9078 59.3048C83.6444 59.2288 83.4568 58.8649 83.3301 58.3274C83.2947 58.8705 83.1678 59.2723 82.9196 59.4135C82.1643 59.8098 80.6894 57.7356 79.6248 54.7871C78.5604 51.8387 78.297 49.1291 79.0571 48.7327" fill="white"/>
<path d="M81.219 60.0314C81.7927 59.413 83.826 60.7642 85.7486 63.0401C86.3773 63.7777 86.94 64.5724 87.4296 65.4148C87.1287 64.4782 86.9047 63.5169 86.7603 62.5412C86.3122 59.5534 86.6194 57.0747 87.4498 57.0176C88.2802 56.9603 89.3119 59.3299 89.7649 62.3283C90.2179 65.3264 89.9058 67.7897 89.0806 67.8521C88.8036 67.8521 88.5167 67.6076 88.2248 67.1713C88.3657 67.691 88.3757 68.0806 88.1846 68.2781C87.6058 68.8965 85.5725 67.5506 83.6551 65.2693C81.7374 62.9881 80.6351 60.6445 81.2039 60.0314" fill="white"/>
<path d="M86.8036 69.9489C87.2246 69.1726 89.6307 69.9489 92.179 71.7114C93.0153 72.2725 93.7998 72.9113 94.5218 73.6193C93.9719 72.7636 93.4929 71.862 93.0897 70.9243C91.8525 68.057 91.5103 65.486 92.3318 65.195C93.153 64.9037 94.8273 67.0004 96.0645 69.8787C97.3017 72.757 97.6439 75.3118 96.8227 75.5976C96.5488 75.6945 96.1907 75.5167 95.7697 75.1555C96.0487 75.6298 96.1594 76.0232 96.0224 76.2768C95.596 77.0581 93.1897 76.2768 90.6416 74.525C88.0933 72.7733 86.3718 70.752 86.7929 69.9489" fill="white"/>
<path d="M95.6526 78.9023C95.7878 78.0464 98.2836 77.9409 101.221 78.6805C102.182 78.912 103.119 79.2301 104.024 79.6313C103.232 79.0334 102.491 78.3691 101.809 77.6449C99.7291 75.4261 98.5539 73.1758 99.209 72.6264C99.8641 72.0771 102.11 73.4346 104.216 75.6533C106.322 77.8721 107.471 80.1224 106.816 80.6666C106.598 80.8515 106.197 80.8094 105.703 80.6191C106.114 80.9572 106.348 81.2848 106.306 81.5646C106.166 82.4259 103.675 82.5314 100.738 81.7972C97.8 81.0627 95.5382 79.7687 95.6526 78.9023Z" fill="white"/>
<path d="M65.6935 87.034C66.0716 86.2887 68.4749 86.9175 71.0593 88.4436C71.9031 88.9361 72.7001 89.5013 73.4418 90.1318C72.8627 89.3549 72.3532 88.5305 71.9191 87.6677C70.5723 85.0262 70.1217 82.628 70.9196 82.3188C71.7171 82.0095 73.4418 83.9008 74.7936 86.5472C76.1454 89.1938 76.5909 91.582 75.7931 91.8912C75.5342 91.9927 75.1666 91.8404 74.7574 91.5211C75.0525 91.9521 75.1769 92.3221 75.0525 92.5655C74.6744 93.316 72.2714 92.6873 69.692 91.1612C67.1126 89.6351 65.3207 87.7894 65.6988 87.034" fill="white"/>
<path d="M73.7918 94.9697C74.1173 94.1716 76.6819 94.6045 79.5179 95.945C80.4427 96.3787 81.3279 96.8864 82.164 97.4628C81.4874 96.7158 80.8777 95.9149 80.3421 95.0688C78.7155 92.4609 77.9997 90.0667 78.7966 89.6756C79.5938 89.2845 81.5838 91.0785 83.2322 93.671C84.8807 96.2631 85.5747 98.6731 84.7775 99.0589C84.5172 99.1894 84.1213 99.0589 83.6551 98.7722C84.0021 99.1894 84.1973 99.5544 84.0672 99.8152C83.7365 100.618 81.1716 100.186 78.3412 98.8452C75.5107 97.5046 73.4612 95.7729 73.7918 94.9697Z" fill="white"/>
<path d="M84.2984 102.567C84.3604 101.737 86.824 101.429 89.7937 101.879C90.764 102.022 91.7197 102.247 92.6499 102.552C91.8145 102.051 91.0247 101.481 90.2896 100.847C88.0222 98.9045 86.6742 96.8607 87.2941 96.294C87.9138 95.7276 90.2381 96.7999 92.5053 98.7578C94.7727 100.716 96.1207 102.739 95.4958 103.311C95.2944 103.503 94.9018 103.498 94.3904 103.356C94.8295 103.645 95.0877 103.938 95.0672 104.211C95.0102 105.046 92.5518 105.354 89.5768 104.899C86.6018 104.444 84.2416 103.382 84.2984 102.572" fill="white"/>
<path d="M95.6565 108.98C95.4925 108.169 97.8462 107.247 100.909 106.935C101.906 106.83 102.911 106.804 103.913 106.86C102.948 106.589 102.01 106.238 101.11 105.812C98.3489 104.522 96.4657 102.89 96.9207 102.18C97.3755 101.47 99.9725 101.938 102.739 103.233C105.505 104.527 107.383 106.154 106.933 106.865C106.785 107.102 106.404 107.192 105.876 107.187C106.404 107.353 106.722 107.57 106.775 107.837C106.939 108.658 104.59 109.575 101.528 109.892C98.4652 110.21 95.8469 109.802 95.6778 108.98" fill="white"/>
<path d="M69.765 68.2284C70.2793 67.5351 72.5057 68.6121 74.7478 70.6343C75.4933 71.288 76.1816 72.0069 76.8046 72.7829C76.3833 71.8871 76.0394 70.9554 75.7763 69.9987C74.9329 67.0624 74.9227 64.5358 75.7763 64.3624C76.63 64.1891 77.9566 66.4321 78.7998 69.3735C79.6432 72.3152 79.6432 74.8314 78.7998 74.9996C78.5273 75.0573 78.1982 74.8367 77.8485 74.4375C78.0595 74.9261 78.116 75.3253 77.9514 75.5512C77.4373 76.2499 75.2106 75.1783 72.9636 73.1558C70.7162 71.1333 69.2972 68.9534 69.8061 68.2284" fill="white"/>
<path d="M76.2617 77.7848C76.7186 77.0386 79.1477 77.9234 81.6682 79.7676C82.4898 80.3649 83.259 81.03 83.9682 81.7558C83.4472 80.8858 82.9998 79.9748 82.6301 79.032C81.4906 76.1377 81.2597 73.5897 82.0925 73.3393C82.9256 73.0888 84.5539 75.2262 85.6933 78.1365C86.8325 81.0469 87.0637 83.5785 86.2306 83.8292C85.9513 83.909 85.5913 83.7171 85.1935 83.3387C85.4515 83.8184 85.5481 84.2183 85.3976 84.4633C84.9301 85.215 82.5064 84.3302 79.9914 82.486C77.4762 80.6418 75.7997 78.5468 76.2672 77.7954" fill="white"/>
<path d="M85.1225 86.4117C85.3383 85.6013 87.8653 85.7281 90.7609 86.6901C91.708 87.0002 92.6259 87.3883 93.5039 87.8499C92.7572 87.2118 92.0702 86.5119 91.4507 85.7583C89.5342 83.4541 88.5707 81.2005 89.2922 80.7396C90.0134 80.2786 92.1454 81.7525 94.0619 84.077C95.9782 86.4014 96.9417 88.635 96.2205 89.0908C95.9782 89.2426 95.5834 89.1666 95.0991 88.9387C95.4885 89.3034 95.6938 89.6376 95.6255 89.901C95.4097 90.7114 92.8878 90.5898 89.9871 89.6224C87.0862 88.6552 84.9118 87.2271 85.1225 86.4117Z" fill="white"/>
<path d="M95.6484 94.971C95.6484 94.105 98.0688 93.5801 101.074 93.7954C102.052 93.864 103.022 94.015 103.975 94.2466C103.1 93.7956 102.264 93.2689 101.477 92.672C99.0517 90.8558 97.5415 88.8557 98.0999 88.1996C98.6586 87.5435 101.084 88.4935 103.51 90.2992C105.935 92.1049 107.445 94.1155 106.882 94.7665C106.701 94.9815 106.303 95.0078 105.785 94.9029C106.246 95.1705 106.53 95.4279 106.535 95.7322C106.535 96.5982 104.115 97.1286 101.11 96.9082C98.1052 96.6875 95.6484 95.8161 95.6484 94.9501" fill="white"/>
<path d="M65.4218 39.1135C66.2028 38.8068 67.5012 40.9226 68.3279 43.8285C68.5984 44.7751 68.7886 45.7439 68.896 46.7241C69.0095 45.7441 69.2031 44.7756 69.4743 43.8285C70.2959 40.9226 71.5943 38.8068 72.3805 39.1135C73.1664 39.4202 73.1259 42.0298 72.3043 44.941C71.4828 47.8523 70.1792 49.9576 69.3981 49.651C69.1394 49.5469 68.9822 49.1884 68.891 48.6632C68.8149 49.1831 68.6525 49.5469 68.3837 49.651C67.6027 49.9576 66.2994 47.847 65.4775 44.941C64.656 42.0351 64.6206 39.4253 65.4016 39.1135" fill="white"/>
<path d="M65.4218 48.0799C66.2028 47.7731 67.5012 49.8847 68.3279 52.792C68.5984 53.7391 68.7886 54.7083 68.896 55.689C69.0095 54.7086 69.2031 53.7396 69.4743 52.792C70.2959 49.8847 71.5943 47.7731 72.3805 48.0799C73.1664 48.3867 73.1259 50.9925 72.3043 53.9051C71.4828 56.8177 70.1792 58.9241 69.3981 58.6172C69.1394 58.5184 68.9822 58.1542 68.891 57.629C68.8149 58.1492 68.6525 58.5184 68.3837 58.6172C67.6027 58.9241 66.2994 56.8124 65.4775 53.9051C64.656 50.9978 64.6206 48.3867 65.4016 48.0799" fill="white"/>
<path d="M65.4218 56.2313C66.2028 55.9245 67.5012 58.0359 68.3279 60.9435C68.5984 61.8923 68.7886 62.8634 68.896 63.8455C69.01 62.8634 69.2033 61.8928 69.4743 60.9435C70.2959 58.0359 71.5943 55.9245 72.3805 56.2313C73.1664 56.5381 73.1259 59.1439 72.3043 62.0566C71.4828 64.969 70.1792 67.0757 69.3981 66.7686C69.1394 66.67 68.9822 66.3058 68.891 65.7806C68.8149 66.3005 68.6525 66.67 68.3837 66.7686C67.6027 67.0757 66.2994 64.969 65.4775 62.0566C64.656 59.1439 64.6206 56.5432 65.4016 56.2313" fill="white"/>
</svg>
