<?xml version="1.0" encoding="utf-8"?>
<!-- Generator: Adobe Illustrator 27.0.0, SVG Export Plug-In . SVG Version: 6.00 Build 0)  -->
<svg version="1.1" id="white" xmlns="http://www.w3.org/2000/svg" xmlns:xlink="http://www.w3.org/1999/xlink" x="0px" y="0px"
	 viewBox="0 0 150.47 41.17" style="enable-background:new 0 0 150.47 41.17;" xml:space="preserve">
<style type="text/css">
	.st0{fill:#EA6109;}
	.st1{fill:#FFFFFF;}
	.st2{opacity:0.6;}
</style>
<rect x="-1.76" y="-1.46" class="st0" width="153.73" height="44.17"/>
<path class="st1" d="M8.78,8.78v13.28c0,2.18,0.39,3.7,1.25,4.94c1.97,2.82,5.71,4.69,7.89,5.33c2.17-0.64,5.91-2.51,7.89-5.33
	c0.87-1.24,1.25-2.77,1.25-4.94V8.78H8.78z M28.74,7.1v14.96c0,2.53-0.49,4.38-1.56,5.91c-2.33,3.33-6.69,5.48-9.26,6.1
	c-2.58-0.63-6.93-2.78-9.26-6.1C7.59,26.44,7.1,24.6,7.1,22.06V7.1H28.74z"/>
<g>
	<polygon class="st1" points="54.66,25.89 46.46,25.89 46.46,13.19 54.66,13.19 54.66,15.28 48.7,15.28 48.7,18.41 53.92,18.41 
		53.92,20.5 48.7,20.5 48.7,23.79 54.66,23.79 	"/>
	<polygon class="st1" points="94.92,25.89 94.92,13.19 92.78,13.19 92.68,13.54 87.46,21.7 87.46,13.19 85.23,13.19 85.23,25.89 
		87.36,25.89 87.46,25.53 92.66,17.36 92.66,25.89 	"/>
	<polygon class="st1" points="118.03,20.5 112.81,20.5 112.81,25.89 110.57,25.89 110.57,13.19 112.81,13.19 112.81,18.42 
		118.03,18.42 118.03,13.19 120.27,13.19 120.27,25.89 118.03,25.89 	"/>
	<polygon class="st1" points="80.01,15.27 74.79,15.27 74.79,25.89 72.54,25.88 72.54,13.19 82.24,13.19 82.24,25.89 80.01,25.89 	
		"/>
	<polygon class="st1" points="67.34,18.51 64.35,24.39 62.86,24.39 59.88,18.51 59.88,25.89 57.64,25.89 57.64,13.19 59.81,13.19 
		59.88,13.56 63.43,20.66 63.75,20.66 67.34,13.57 67.42,13.19 69.57,13.19 69.57,25.89 67.34,25.89 	"/>
	<polygon class="st1" points="139.65,25.89 137.41,25.89 137.41,15.28 133.68,15.28 133.68,13.19 143.37,13.19 143.37,15.28 
		139.65,15.28 	"/>
	<path class="st1" d="M41.24,13.19v5.23c-0.32,0.17-1.35,0.9-2.92,0.9c-1.16,0-2.3-0.43-2.3-2.39v-3.74h-2.24v3.74
		c0,2.66,1.69,4.48,4.47,4.48c1.1,0,2.25-0.37,2.98-0.75v5.23h2.24v-12.7H41.24L41.24,13.19z"/>
	<path class="st1" d="M122.14,25.89h2.45l1.14-2.99h4.61l1.14,2.99h2.45l-4.83-12.7h-2.13C126.97,13.19,122.14,25.89,122.14,25.89z
		 M126.45,20.81l1.56-4.5h0.07l1.56,4.5H126.45L126.45,20.81z"/>
	<path class="st1" d="M107.12,15.18c-0.92-1.44-2.58-2.28-4.38-2.28s-3.46,0.84-4.38,2.28c-0.48,0.75-0.75,1.63-0.75,2.98v2.73
		c0,1.36,0.27,2.24,0.75,2.99c0.92,1.44,2.58,2.28,4.38,2.28s3.46-0.84,4.38-2.28c0.48-0.75,0.75-1.63,0.75-2.99v-2.73
		C107.87,16.8,107.6,15.92,107.12,15.18z M105.64,21.08c0,0.78-0.18,1.36-0.47,1.77c-0.54,0.75-1.47,1.22-2.42,1.22
		s-1.89-0.47-2.43-1.22c-0.3-0.41-0.47-0.99-0.47-1.77v-3.1c0-0.78,0.18-1.36,0.47-1.77c0.54-0.75,1.47-1.22,2.43-1.22
		s1.89,0.47,2.42,1.22c0.3,0.41,0.47,0.99,0.47,1.77V21.08z"/>
</g>
<g class="st2">
	<path class="st1" d="M13.59,23.7h3.57v6.56c-1.95-0.81-4.39-2.32-5.73-4.23c-0.44-0.63-0.95-1.65-0.95-3.97
		C10.96,23.08,12.22,23.7,13.59,23.7z"/>
</g>
<path class="st1" d="M14.54,22.01h3.04c0.84,0,1.27-0.42,1.27-0.42v8.6c1.92-0.82,4.26-2.3,5.56-4.16c0.44-0.63,0.95-1.65,0.95-3.97
	V10.48h-6.51v6.79c0,0.43-0.25,0.68-0.68,0.68h-1.18c-0.43,0-0.68-0.25-0.68-0.68v-6.79h-5.83v7.47c0,2.43,0.26,4.07,4.06,4.07
	V22.01z"/>
</svg>
