<svg width="143" height="45" viewBox="0 0 143 45" fill="none" xmlns="http://www.w3.org/2000/svg">
<g clip-path="url(#clip0_31_70672)">
<path d="M107.472 27.3485L120.741 0H128.656L141.925 27.3485H135.389L132.396 21.0434H117.001L114.008 27.3485H107.472ZM119.442 15.9599H129.955L124.718 4.88648L119.442 15.9599Z" fill="white"/>
<path d="M67.5383 27.3485V0H77.3036L85.8479 21.871L94.3925 0H104.157V27.3485H98.2513V4.80766L89.2736 27.3485H82.501L73.4839 4.80766V27.3485H67.5383Z" fill="white"/>
<path d="M31.739 27.3485V0H37.7634V22.3833L52.687 0H61.7826V27.3485H55.7976V4.96531L40.8349 27.3485H31.739Z" fill="white"/>
<path d="M17.6373 22.1468C19.8029 22.1468 21.0236 20.7675 21.0236 19.0731C21.0236 17.3786 19.8029 16.1963 17.6373 16.1963H2.04454V11.0734H17.1254C19.1729 11.0734 20.4329 9.73357 20.4329 8.03907C20.4329 6.34456 19.1729 5.20174 17.1254 5.20174H1.49329V0H17.401C23.3467 0 26.6936 2.71909 26.6936 7.2509C26.6936 10.4429 24.4098 12.6497 22.0473 13.162C24.4492 13.5561 27.2449 15.684 27.2449 19.5065C27.2449 24.1172 23.898 27.3485 17.9129 27.3485H1.49329V22.1468H17.6373Z" fill="white"/>
<path d="M131.879 32.7865L135.792 37.6603L139.688 32.7865H142.729L138.082 38.6351L142.901 44.6548H139.791L135.758 39.627L131.691 44.6548H128.633L133.434 38.6182L128.786 32.7865H131.879Z" fill="white"/>
<path d="M113.313 44.6548L119.072 32.7865H122.506L128.265 44.6548H125.428L124.13 41.9187H117.448L116.15 44.6548H113.313ZM118.508 39.7126H123.07L120.797 34.907L118.508 39.7126Z" fill="white"/>
<path d="M102.704 44.6548H100.055V32.7865H102.704V37.4382H104.618L109.488 32.7865H112.666L106.856 38.447L112.922 44.6548H109.522L104.618 39.7126H102.704V44.6548Z" fill="white"/>
<path d="M84.5193 44.6548V32.7865H87.1338V42.5L93.6097 32.7865H97.557V44.6548H94.9598V34.9413L88.4665 44.6548H84.5193Z" fill="white"/>
<path d="M79.3513 32.7865H81.9998V44.6548H79.3513V39.7981H71.8328V44.6548H69.1843V32.7865H71.8328V37.5234H79.3513V32.7865Z" fill="white"/>
<path d="M64.5092 44.6548L60.5446 39.7126H58.7848V44.6548H56.1702V39.7126H54.3591L50.4462 44.6548H47.302L52.1205 38.5153L47.4045 32.7865H50.4631L54.3591 37.4382H56.1702V32.7865H58.7848V37.4382H60.5958L64.4919 32.7865H67.5505L62.8345 38.5153L67.653 44.6548H64.5092Z" fill="white"/>
<path d="M35.4589 44.6548V42.3974H37.5435C38.6712 42.3974 39.2012 42.0039 39.7135 40.9951L39.799 40.8239H38.3465L32.9812 32.7865H35.8861L40.4484 39.5927L44.0197 32.7865H46.8222L42.1401 41.7132C41.166 43.5944 40.141 44.6548 37.9706 44.6548H35.4589Z" fill="white"/>
<path d="M18.6232 44.6548H18.196V42.3801H18.384C19.5631 42.3801 20.3661 41.645 20.3661 38.3784V32.7865H31.5414V44.6548H28.8928V35.061H22.878V38.447C22.878 42.7737 21.3914 44.6548 18.6232 44.6548Z" fill="white"/>
<path d="M0 44.6548V32.7865H7.89441C10.4746 32.7865 11.9271 34.0007 11.9271 35.9331C11.9271 37.3526 10.936 38.2759 9.96201 38.4983C10.9702 38.6694 12.2346 39.5927 12.2346 41.2344C12.2346 43.2524 10.7651 44.6548 8.18491 44.6548H0ZM7.77481 37.5747C8.66337 37.5747 9.21016 36.9934 9.21016 36.258C9.21016 35.5056 8.66337 35.0438 7.77481 35.0438H2.64856V37.5747H7.77481ZM2.64856 42.3801H8.01404C9.00509 42.3801 9.51772 41.7988 9.51772 41.0637C9.51772 40.3112 9.00509 39.7981 8.01404 39.7981H2.64856V42.3801Z" fill="white"/>
</g>
<defs>
<clipPath id="clip0_31_70672">
<rect width="143" height="45" fill="white"/>
</clipPath>
</defs>
</svg>
