<svg id="Layer_1" data-name="Layer 1" xmlns="http://www.w3.org/2000/svg" viewBox="0 0 322.63 220.9">
  <defs>
    <style>
      .cls-1 {
        fill: #fff;
      }

      .cls-2 {
        fill: #785eff;
      }
    </style>
  </defs>
  <polygon class="cls-1" points="0 10.63 16.76 214.37 308.23 220.9 322.63 0 0 10.63"/>
  <g>
    <path class="cls-2" d="M101.57,88.05v-15.89c-1.18,.28-3.53,.84-7.56,1.3-1.34,.15-4.03,.46-8.17,.46-2.07,0-6.22,0-9.44-1.88-1.07-.63-3.22-1.88-3.22-5.1,0-1.07,0-3.22,2.99-4.87,1-.55,2.99-1.65,8.37-1.65,1.64,0,4.91,0,9.44,.69,1.51,.23,4.53,.69,7.6,1.69v-16.5c-1.31-.64-3.91-1.92-8.41-2.8-1.5-.29-4.49-.88-10.25-.88-1.89,0-5.68,0-10.25,1.73-1.52,.58-4.57,1.73-7.75,4.95-1.06,1.07-3.19,3.22-4.91,7.83-.58,1.54-1.73,4.61-1.73,10.44,0,1.77,0,5.3,1.69,9.63,.56,1.45,1.69,4.34,5.07,7.48,1.03,.96,3.02,2.81,7.25,4.44l29.03-.92c.09-.05,.18-.09,.26-.14Z"/>
    <path class="cls-2" d="M147.18,85.29c1.14-1,3.42-2.99,5.3-7.37,.63-1.46,1.88-4.38,1.88-10.13,0-1.97,0-5.91-1.88-10.55-.63-1.55-1.88-4.64-5.26-7.91-1.13-1.09-3.38-3.26-8.18-4.99-1.6-.58-4.8-1.73-10.71-1.73-1.94,0-5.83,0-10.63,1.73-1.6,.58-4.8,1.73-8.21,4.95-1.14,1.07-3.42,3.22-5.26,7.87-.61,1.55-1.84,4.64-1.84,10.48,0,1.84,0,5.53,1.88,9.9,.63,1.46,1.88,4.38,5.26,7.45,.72,.65,1.89,1.72,3.89,2.82l31.83-1.01c.63-.44,1.27-.94,1.93-1.51Zm-10.94-13.39c-.51,.29-1.54,.88-3.57,1.3-.68,.14-2.03,.42-4.34,.42-.77,0-2.3,0-4.34-.46-.68-.15-2.03-.46-3.61-1.3-.52-.28-1.57-.84-2.49-2.11-.31-.42-.92-1.27-.92-2.96,0-.56,0-1.69,.92-2.92,.31-.41,.92-1.23,2.49-2.07,.52-.28,1.57-.84,3.65-1.27,.69-.14,2.07-.42,4.3-.42,.74,0,2.23,0,4.3,.42,.69,.14,2.07,.42,3.61,1.23,.51,.27,1.54,.81,2.46,2.07,.31,.42,.92,1.27,.92,2.96,0,.56,0,1.69-.92,2.96-.31,.42-.92,1.27-2.46,2.15Z"/>
    <path class="cls-2" d="M220.39,77.15c.55-1.54,1.65-4.61,1.65-10.44,0-3.84,0-11.51-6.41-17.81-2.14-2.1-6.41-6.29-17.85-6.29-1.54,0-4.61,0-8.25,1.11-1.22,.37-3.65,1.11-6.45,3.11-.93,.67-2.8,2-4.72,4.84-.64,.95-1.92,2.84-2.99,6.22h-2.92v-14.51h-16.27v43.07l16.27-.52v-10.24h2.76c.59,2.19,1.7,6.25,5.59,9.98l35.24-1.12c1.11-1.19,2.89-3.34,4.35-7.4Zm-15.01-4.57c-1,.6-2.99,1.8-7.6,1.8-1.51,0-4.53,0-7.56-1.88-1.01-.63-3.03-1.88-3.03-5.41,0-1.23,0-3.68,2.96-5.33,.99-.55,2.96-1.65,7.64-1.65,1.59,0,4.76,0,7.68,1.77,.97,.59,2.92,1.77,2.92,5.22,0,1.23,0,3.68-2.99,5.49Z"/>
    <path class="cls-2" d="M264.56,70.67c-.37-.47-1.11-1.42-2.61-2.23-.5-.27-1.5-.81-2.96-1.34,.97-.56,2.92-1.69,4.76-4.18,.61-.83,1.84-2.49,1.84-6.64,0-1.36,0-4.07-1.84-6.68-.61-.87-1.84-2.61-4.99-4.18-1.05-.52-3.15-1.57-7.29-2.19-1.38-.2-4.14-.61-8.83-.61-2.1,0-6.29,0-10.86,1.11-1.52,.37-4.57,1.11-8.25,2.42v13.05c.59-.18,1.77-.54,4.03-.96,.75-.14,2.26-.42,4.61-.73,.78-.1,2.34-.31,4.57-.46,.74-.05,2.23-.15,3.91-.15,1.02,0,3.07,0,5.1,.15,.68,.05,2.03,.15,3.22,.54,.4,.13,1.19,.38,1.69,1,.17,.2,.5,.61,.5,1.61,0,.31,0,.92-.5,1.5-.17,.19-.5,.58-1.34,.84-.28,.09-.84,.27-1.96,.38-.37,.04-1.11,.12-2.34,.12h-13.82v9.21h13.66c.77,0,2.3,0,3.76,.31,.49,.1,1.46,.31,2.26,.77,.27,.15,.81,.46,1.08,1,.09,.18,.27,.54,.27,1,0,.26,0,.77-.42,1.38-.14,.2-.42,.61-1.54,1.07-.37,.15-1.11,.46-3.07,.69-.65,.08-1.96,.23-5.1,.23-1.53,0-4.6,0-9.25-.35-1.55-.12-4.64-.35-9.33-1.42v7.39l41.79-1.33c.43-.98,.78-2.11,.96-3.46,.15-1.05,.46-3.15-.08-5.3-.18-.72-.54-2.15-1.65-3.57Z"/>
    <polygon class="cls-2" points="109.34 90.88 84.88 91.65 81.27 105.67 79.35 105.67 75.82 91.94 51.1 92.72 47.41 128.98 63.61 129.23 65.15 112.04 67.07 112.04 70.49 129.34 90.07 129.65 93.55 112.04 95.47 112.04 97.06 129.76 113.32 130.01 109.34 90.88"/>
    <path class="cls-2" d="M118.19,117.14c-.56-.09-1.69-.27-2.99-.88v13.78l21.76,.34c1.41-1.18,3.37-3.22,5.19-7.14l15.41-33.88-17.44,.55-5.1,14.22h-1.92l-5.19-13.84-16.84,.53,12.74,26.35c-.31,.08-.92,.23-2.69,.23-.41,0-1.23,0-2.92-.27Z"/>
    <polygon class="cls-2" points="186.41 88.45 159.7 89.29 148.83 130.57 165.68 130.84 172.17 107.97 174.16 107.97 180.71 131.08 197.7 131.34 186.41 88.45"/>
    <path class="cls-2" d="M236.98,128.04c1.89-1.65,5.68-4.95,5.68-13.62,0-1.71,0-5.14-1.77-8.6-.59-1.15-1.77-3.45-4.84-5.53-1.02-.69-3.07-2.07-7.18-2.96-1.37-.29-4.11-.88-8.87-.88h-2.03c-.35,0-1.04,0-2.26,.15v-9.08l-16.12,.51v43.34l30.35,.48c2.38-.72,4.83-1.89,7.03-3.81Zm-10.55-10.29c-.7,.37-2.11,1.11-6.95,1.11-.26,0-.77,0-1.65-.08-.29-.03-.88-.08-2.11-.23v-8.14c.33-.03,1-.08,1.88-.12,.29-.01,.88-.04,2.11-.04,1.41,0,4.22,0,6.52,.96,.77,.32,2.3,.96,2.3,3.19,0,.74,0,2.23-2.11,3.34Z"/>
    <polygon class="cls-2" points="240.41 86.75 240.41 101.99 253.99 101.99 253.99 132.23 270.19 132.49 270.19 101.99 284.47 101.99 284.47 85.36 240.41 86.75"/>
    <path class="cls-2" d="M44.15,170.22c1,.9,2.99,2.69,7.02,4.22,1.34,.51,4.03,1.54,8.64,2v2.6h16.12v-2.6c1.46-.15,4.37-.46,8.37-1.96,1.33-.5,3.99-1.5,7.1-4.18,1.04-.9,3.11-2.69,4.95-6.64,.61-1.32,1.84-3.95,1.84-9.33,0-1.79,0-5.37-1.84-9.4-.61-1.34-1.84-4.03-4.95-6.83-1.04-.93-3.11-2.8-7.1-4.41-.64-.26-1.6-.64-2.9-1.02l-25.72-.38c-1.28,.3-2.76,.74-4.43,1.4-1.34,.54-4.03,1.61-7.06,4.37-1.01,.92-3.03,2.76-4.8,6.79-.59,1.34-1.77,4.03-1.77,9.4,0,1.79,0,5.37,1.77,9.33,.59,1.32,1.77,3.95,4.76,6.64Zm31.85-22.41c.77,0,2.3,0,3.8,.5,.5,.17,1.5,.5,2.38,1.38,.29,.29,.88,.88,1.27,2,.13,.37,.38,1.11,.38,2.26,0,1.07,0,3.22-2,5.18-.67,.65-2,1.96-5.83,1.96v-13.28Zm-23.64,4.11c.13-.4,.38-1.19,1.31-2.11,.31-.31,.92-.92,2.42-1.46,.5-.18,1.5-.54,3.72-.54v13.2c-.74,0-2.23,0-3.72-.54-.5-.18-1.5-.54-2.42-1.46-.31-.31-.92-.92-1.31-2.11-.13-.4-.38-1.19-.38-2.49,0-.43,0-1.3,.38-2.49Z"/>
    <polygon class="cls-2" points="99.5 132.93 99.5 177.29 115.39 177.29 125.26 158.26 126.85 158.26 126.85 177.29 141.43 177.29 141.43 133.55 123.71 133.29 115.66 148.74 114.14 148.74 114.14 133.15 99.5 132.93"/>
    <polygon class="cls-2" points="143.38 177.29 158.57 177.29 164.86 152.66 166.66 152.66 172.94 177.29 188.14 177.29 177.9 134.09 153.7 133.73 143.38 177.29"/>
    <path class="cls-2" d="M189.9,134.27v42.03c2.97,.46,8.91,1.38,18.65,1.38,3.29,0,9.88,0,14.99-4.95,1.7-1.65,5.11-4.95,5.11-13.62,0-1.71,0-5.14-1.59-8.6-.53-1.15-1.59-3.45-4.35-5.53-.92-.69-2.76-2.07-6.46-2.96-1.23-.29-3.7-.88-7.98-.88h-1.83c-.31,0-.93,0-2.04,.15v-6.81l-14.51-.21Zm16.2,20.73c.27-.01,.79-.04,1.9-.04,1.27,0,3.8,0,5.87,.96,.69,.32,2.07,.96,2.07,3.19,0,.74,0,2.23-1.9,3.34-.63,.37-1.9,1.11-6.25,1.11-.23,0-.69,0-1.49-.08-.26-.03-.79-.08-1.9-.23v-8.14c.3-.03,.9-.08,1.69-.12Z"/>
    <polygon class="cls-2" points="228.21 177.29 242.86 177.29 244.51 156.72 246.24 156.72 249.9 177.29 266.41 177.29 270.07 156.72 271.8 156.72 273.46 177.29 288.1 177.29 284.29 135.67 262.5 135.34 259.02 150.35 257.3 150.35 253.79 135.21 232.1 134.89 228.21 177.29"/>
  </g>
</svg>
