<svg width="660" height="185" viewBox="0 0 660 185" fill="none" xmlns="http://www.w3.org/2000/svg">
<path d="M544.627 101.773V113.331L588.789 113.327V181.732H615.279V113.327H659.441V101.773H544.627Z" fill="#DA0428"/>
<path d="M330 98.7246C291.987 98.7246 259.439 114.565 259.439 141.729C259.439 168.893 291.991 184.733 330 184.733C368.009 184.733 400.56 168.893 400.56 141.729C400.56 114.565 368.009 98.7246 330 98.7246ZM330 173.137C307.337 173.137 287.93 161.57 287.93 141.725C287.93 121.881 307.337 110.317 330 110.317C352.663 110.317 372.069 121.885 372.069 141.729C372.069 161.573 352.663 173.141 330 173.141V173.137Z" fill="#DA0428"/>
<path d="M132.572 101.73L132.568 181.735H159.059V113.326H218.99V181.735H245.48L245.484 101.73H132.572Z" fill="#DA0428"/>
<path d="M71.1205 110.317C83.02 110.317 93.3742 111.816 104.088 115.111L99.6643 122.774L110.537 129.297L121.392 110.49C108.466 102.969 90.3438 98.7246 71.117 98.7246C33.1045 98.7246 0.556641 114.565 0.556641 141.729C0.556641 168.893 33.108 184.733 71.117 184.733C90.3438 184.733 108.311 180.588 121.237 173.067L116.016 164.028C100.44 170.495 87.3768 173.137 71.1135 173.137C48.4506 173.137 29.044 161.57 29.044 141.725C29.044 121.881 48.4506 110.317 71.1135 110.317H71.1205Z" fill="#DA0428"/>
<path d="M449.429 101.773L414.518 101.833V181.732H441.008V164.95C507.138 164.95 534.097 150.747 534.097 131.527C534.097 115.278 513.272 101.77 449.429 101.77V101.773ZM441.008 156.949V113.366C486.475 113.366 505.606 119.218 505.606 133.326C505.606 146.545 483.321 156.949 441.008 156.949Z" fill="#DA0428"/>
<path d="M367.932 28.473C368.069 26.3739 367.939 23.5446 367.727 21.7207C359.518 25.1251 344.154 24.6276 336.096 21.7383C335.945 23.5023 335.888 26.0705 335.98 28.4695C343.339 31.2353 356.138 31.6622 367.935 28.4695L367.932 28.473Z" fill="#DA0428"/>
<path d="M569.537 27.8524C569.597 25.2383 569.463 23.5449 569.111 21.7422C558.774 25.0266 547.831 24.7514 538.768 21.7422C538.616 23.5061 538.492 25.5417 538.584 27.9441C547.34 31.0451 558.77 30.8617 569.534 27.8524H569.537Z" fill="#DA0428"/>
<path d="M580.541 38.2453C567.682 50.6457 550.032 60.2132 542.415 60.2132C541.777 60.2132 541.382 59.8887 541.382 59.2501C541.382 57.1969 547.294 48.0386 553.087 41.745C551.948 40.4679 550.124 39.0991 548.663 38.3688C546.261 40.5667 543.908 43.1279 541.844 45.7314C533.613 52.3779 521.933 59.8957 518.292 59.8957C517.699 59.8957 517.304 59.5782 517.304 58.862C517.304 55.5776 526.304 42.5669 532.202 37.5186C530.918 36.1145 528.939 34.654 527.217 33.8708C523.496 36.813 518.578 42.5211 514.94 48.0739C507.363 53.4256 496.945 59.3171 494.384 59.3171C493.745 59.3171 493.488 58.8903 493.488 58.2976C493.488 56.2444 498.229 48.0351 503.75 42.0166C502.427 40.5561 500.787 39.3707 499.326 38.5946C497.813 40.0481 496.179 41.939 494.599 44.0098C486.7 50.6563 473.502 59.0949 469.985 59.0949C469.163 59.0949 468.768 58.5657 468.768 57.7966C468.768 55.7893 476.201 44.5249 484.594 35.6312C483.179 34.3647 481.038 32.9395 479.486 32.1669C476.734 34.6505 474.042 37.5257 471.601 40.5032C462.968 47.894 448.726 58.6645 440.175 58.6645C436.037 58.6645 435.536 52.6037 436.114 48.7019C445.763 44.2568 456.114 38.2524 460.788 32.3503C460.471 30.0713 459.832 28.1557 458.689 26.6352C450.903 34.3647 437.19 43.1173 425.076 47.4424C427.446 43.6359 429.584 39.9493 431.376 36.4285C430.269 35.5324 427.203 33.7509 425.735 33.2252C424.113 36.1639 421.918 39.8082 419.509 43.6253C407.345 52.459 392.267 60.1391 382.862 60.1391C379.214 60.1391 377.51 59.1055 377.51 56.3679C377.51 49.5909 386.936 41.2087 398.543 38.3371C396.867 40.9865 395.28 43.7982 394.309 46.1089C395.618 47.012 397.428 47.9187 399.256 48.4584C402.184 42.574 406.103 36.5096 409.25 32.6325C408.022 31.5883 406.287 30.5582 404.516 30.1489C403.923 30.7698 403.111 31.7647 402.201 32.9889C388.972 32.8548 377.429 40.5102 372.43 48.3949C363.596 54.9849 355.74 59.6205 352.519 59.6205C351.834 59.6205 351.651 59.1196 351.651 58.7068C351.651 56.1527 359.222 46.758 359.222 42.4258C359.222 39.78 357.384 38.1854 353.75 38.1854C348.687 38.1854 344.218 40.7395 338.654 45.1176C340.707 39.1873 336.146 36.7248 332.131 36.7248C328.117 36.7248 323.421 39.7341 320.32 41.8332C321.368 39.6459 322.296 37.9067 323.146 35.5395C321.594 34.4 319.801 33.4051 317.582 32.5761C315.699 35.9311 313.388 39.914 310.971 43.523C302.078 50.5469 286.026 60.3967 274.761 60.3967C271.661 60.3967 270.218 58.4352 270.218 55.9128C270.218 54.5863 270.429 53.2951 270.81 52.0498C283.807 52.7765 298.095 45.4245 298.095 37.1552C298.095 34.6328 295.876 31.7118 290.676 31.7118C279.669 31.7118 270.486 38.1889 265.801 45.682C258.124 44.2497 253.644 41.0112 252.462 39.1449C250.592 39.8293 248.677 40.6972 247.17 41.6074C247.138 41.9884 247.156 42.3976 247.202 42.8068C243.752 52.3779 235.892 59.8922 229.506 59.8922C226.832 59.8922 225.918 57.5215 225.918 55.6976C225.918 53.2669 227.499 48.0351 228.836 45.6644C241.727 41.4063 274.32 21.9502 274.32 10.1531C274.32 6.0185 271.583 4.31455 268.362 4.31455C252.152 4.31455 231.503 24.1234 222.8 41.7414C218.379 43.1808 214.019 43.6147 209.51 43.2584C209.987 37.3493 207.161 31.4366 199.668 31.4366C193.914 31.4366 188.291 34.9398 184.152 39.7588C165.783 52.9141 149.879 60.6224 130.991 60.6224C121.748 60.6224 115.25 55.3554 115.25 48.1515C115.25 25.9438 151.037 9.06656 172.5 9.43345C169.9 13.4481 167.265 17.7592 165.398 21.1282C167.497 22.8146 169.731 24.0458 172.331 25.0971C176.162 18.4471 182.043 9.28176 186.012 3.98294C184.234 2.61413 180.995 0.698513 179.033 0C178.342 0.892544 177.538 1.99323 176.67 3.22798C174.169 2.84697 171.452 2.63883 168.323 2.63883C146.704 2.63883 106.656 21.0013 106.656 47.8093C106.656 60.5272 116.756 68.2249 131.595 68.2249C147.286 68.2249 165.684 60.4566 178.123 50.9879C177.756 52.4414 177.545 53.8807 177.527 55.2672C177.457 60.7389 180.43 65.9142 187.546 65.9142C198.024 65.9142 205.118 56.5795 208.039 49.104C211.673 49.3933 216.016 49.2875 220.08 48.3314C219.142 51.2384 218.616 53.9972 218.616 56.4843C218.616 62.15 222.447 66.2176 228.649 66.2176C237.906 66.2176 246.465 58.6786 252.423 47.3084C255.909 49.2804 258.59 50.561 263.197 51.3195C262.707 52.9459 262.442 54.5616 262.442 56.1068C262.442 60.8059 265.497 66.2176 274.253 66.2176C285.137 66.2176 296.267 59.4688 304.476 53.8137C302.317 57.4015 299.308 61.7478 298.761 62.5698C300.36 63.8963 302.593 65.3991 304.536 66.461C307.729 62.1394 311.652 56.1632 314.905 50.9562C319.618 47.1567 327.887 42.8986 329.831 42.8986C330.286 42.8986 330.773 43.1737 330.773 43.6888C330.773 45.5127 324.783 55.1508 319.766 62.9931C321.558 64.2702 324.052 65.7907 325.968 66.6409C328.66 62.912 330.861 59.5888 332.84 56.3961C338.799 50.1342 348.134 44.2638 350.077 44.2638C350.472 44.2638 350.776 44.5355 350.776 45.0223C350.776 46.7263 343.509 54.5687 343.509 60.0403C343.509 62.5628 345.149 65.7555 349.347 65.7555C355.704 65.7555 363.289 61.6702 369.794 56.5266C369.967 61.3845 373.739 65.9671 381.634 65.9671C390.394 65.9671 402.138 61.2575 413.656 52.5895C411.127 56.3573 408.647 59.8957 406.565 62.6792C407.796 63.6352 410.375 65.5438 412.217 66.5527C415.011 62.5733 417.731 58.6539 420.285 54.8262C422.881 54.0677 426.293 52.8612 430.075 51.316C428.896 58.9044 432.572 65.3145 438.475 65.3145C444.945 65.3145 455.087 59.7652 463.12 53.4856C462.016 55.8987 461.367 58.0507 461.367 59.7052C461.367 63.8998 463.815 65.8613 466.673 65.8613C471.597 65.8613 479.99 60.7036 487.91 54.7697C486.979 56.8018 486.404 58.5904 486.404 59.8428C486.404 63.4412 488.775 65.5896 492.697 65.5896C496.62 65.5896 503.958 61.3915 510.524 56.5831C510.157 57.7049 509.938 58.728 509.938 59.5853C509.938 64.0233 512.676 66.0306 516.14 66.0306C520.49 66.0306 528.872 60.9435 535.635 55.9304C535.208 57.1087 534.975 58.1706 534.975 59.0667C534.975 63.8963 538.485 65.5438 542.638 65.5438C552.078 65.5438 570.183 54.424 582.679 43.6994C582.315 41.9072 581.416 39.7306 580.534 38.2418L580.541 38.2453ZM289.702 37.2752C291.282 37.2752 291.861 37.7303 291.861 38.3688C291.861 40.6196 283.278 46.3982 273.855 46.4017C278.162 40.9194 285.303 37.2752 289.705 37.2752H289.702ZM266.475 10.3048C267.508 10.3048 268.122 10.8128 268.122 11.8465C268.122 16.5879 247.685 31.2532 233.697 37.5151C242.88 23.5907 257.517 10.3048 266.471 10.3048H266.475ZM188.506 59.8957C186.057 59.8957 184.872 58.0718 184.872 55.2742C184.872 44.5708 194.478 37.5045 199.784 37.5045C202.218 37.5045 203.637 39.2684 203.721 42.4047C202.917 42.2353 202.109 42.0483 201.287 41.8367C200.694 43.6606 200.285 45.4845 200.193 47.4918C200.645 47.7388 201.389 47.9998 202.36 48.2432C199.506 54.3958 192.824 59.8992 188.502 59.8992L188.506 59.8957Z" fill="#DA0428"/>
</svg>
