<svg width="58" height="55" viewBox="0 0 58 55" fill="none" xmlns="http://www.w3.org/2000/svg">
<path d="M14.9561 0C17.8869 2.58804e-05 20.2625 2.37589 20.2627 5.30664C20.2627 5.46915 20.2545 5.63027 20.2402 5.78906H37.6533C37.639 5.63029 37.6309 5.46913 37.6309 5.30664C37.6311 2.37587 40.0077 0 42.9385 0H44.8682C47.7989 8.05082e-05 50.1746 2.37592 50.1748 5.30664C50.1748 5.49955 50.1636 5.69035 50.1436 5.87793C54.5225 6.4862 57.8943 10.2427 57.8945 14.7891V45.0352C57.8943 50.0054 53.8648 54.035 48.8945 54.0352H9C4.02958 54.0352 0.000238503 50.0055 0 45.0352V14.7891C0.000224723 10.243 3.37138 6.48649 7.75 5.87793C7.72994 5.69037 7.71875 5.49952 7.71875 5.30664C7.71898 2.37587 10.0955 0 13.0264 0H14.9561ZM19.0996 17.2451C18.0649 17.2451 17.3994 17.9476 17.3994 18.9453V24.6357H21.2803V20.9404H24.0518V24.6357L17.3994 37.7549V43.1123H27.9316V39.417H21.2803V38.2715L27.9316 25.1533V18.9453C27.9316 17.9476 27.2662 17.2451 26.2314 17.2451H19.0996ZM29.9629 30.918H33.8428V29.4395H36.6143V39.417H33.8428V34.6133H29.9629V41.4131C29.963 42.4106 30.6277 43.1121 31.6621 43.1123H38.7949C39.8293 43.1121 40.494 42.4106 40.4941 41.4131V27.4443C40.4941 26.4467 39.8294 25.7443 38.7949 25.7441H33.8428V20.9404H40.3096V17.2451H29.9629V30.918Z" fill="#FF121F"/>
</svg>
