<svg width="60" height="61" viewBox="0 0 60 61" fill="none" xmlns="http://www.w3.org/2000/svg">
<g clip-path="url(#clip0_178_24625)">
<path d="M30.0035 0.426274C46.5697 0.43472 60.0014 13.8672 60 30.4277C60 46.9853 46.5626 60.4221 30.0007 60.4277C13.4529 60.4319 -0.00703768 46.9713 2.76071e-06 30.4249C0.0070432 13.863 13.4543 0.417827 30.0035 0.426274ZM32.9675 21.7603C32.9675 19.7234 32.9704 17.6864 32.9647 15.648C32.9647 15.3453 32.9633 15.0342 32.8929 14.7428C32.5451 13.314 31.1525 12.3004 29.774 12.4482C28.1716 12.62 27.0395 13.8489 27.0381 15.4692C27.0296 20.3864 27.0451 25.305 27.0268 30.2222C27.0212 31.5553 27.5985 32.4928 28.7348 33.1376C29.9345 33.8189 31.123 34.5171 32.317 35.2069C35.312 36.937 38.307 38.6699 41.3048 40.3944C42.589 41.1334 43.9661 41.0335 44.956 40.1508C46.5035 38.7699 46.2374 36.3781 44.3702 35.2871C40.7571 33.1742 37.1284 31.0907 33.4956 29.0115C33.1027 28.7863 32.9478 28.5456 32.9549 28.081C32.983 25.9736 32.9675 23.8663 32.9675 21.7589V21.7603Z" fill="#EB3333"/>
</g>
<defs>
<clipPath id="clip0_178_24625">
<rect width="60" height="60" fill="white" transform="translate(0 0.42627)"/>
</clipPath>
</defs>
</svg>
