<svg width="69" height="35" viewBox="0 0 69 35" fill="none" xmlns="http://www.w3.org/2000/svg">
<path d="M35.1678 4.73468H37.908V9.66039H38.8954V3.84717H34.1915V9.66039H35.1789V4.73468H35.1678Z" fill="currentColor"/>
<path d="M47.3266 9.75998C48.9685 9.75998 50.0557 8.51746 50.0557 6.75353C50.0557 4.98959 48.9685 3.74707 47.3266 3.74707C45.6847 3.74707 44.5975 4.98959 44.5975 6.75353C44.5975 8.51746 45.6847 9.75998 47.3266 9.75998ZM47.3266 4.65677C48.4028 4.65677 49.0462 5.53319 49.0462 6.76462C49.0462 7.99605 48.3917 8.87247 47.3266 8.87247C46.2616 8.87247 45.6182 7.99605 45.6182 6.76462C45.6182 5.53319 46.2505 4.65677 47.3266 4.65677Z" fill="currentColor"/>
<path d="M37.2645 24.8476L35.4008 20.3435H34.1804V26.1567H35.1234V21.9521L36.8541 26.1456H37.6417L39.3613 21.9521V26.1567H40.2932V20.3435H39.095L37.2423 24.8476H37.2645Z" fill="currentColor"/>
<path d="M56.5125 6.9871L58.8533 9.66074H60.0958L57.4999 6.621L60.0404 3.83643H58.8422L56.5125 6.35475V3.83643H55.5251V9.64965H56.5125V6.97601V6.9871Z" fill="currentColor"/>
<path d="M54.6597 8.77288H51.853V7.10879H54.4933V6.25455H51.853V4.73468H54.6597V3.84717H50.8767V9.66039H54.6597V8.77288Z" fill="currentColor"/>
<path d="M48.0257 15.9062H49.1794C50.4109 15.9062 51.1542 15.0519 51.1542 13.998C51.1542 12.9441 50.4331 12.0898 49.1462 12.0898H47.0272V17.9031H48.0146V15.8951L48.0257 15.9062ZM48.0257 12.9663H49.0574C49.7785 12.9663 50.1668 13.3878 50.1668 13.998C50.1668 14.6082 49.7674 15.0408 49.0574 15.0408H48.0257V12.9552V12.9663Z" fill="currentColor"/>
<path d="M64.844 3.84717H60.1957V4.73468H62.0262V9.66039H63.0135V4.73468H64.844V3.84717Z" fill="currentColor"/>
<path d="M61.3716 23.1284C61.7377 22.973 62.1371 22.5626 62.1371 21.8747C62.1371 21.0316 61.5269 20.366 60.3399 20.366H58.0989V26.1792H60.4175C61.6157 26.1792 62.3589 25.4914 62.3589 24.5262C62.3589 23.672 61.7932 23.2504 61.3716 23.1284ZM59.0751 21.198H60.1956C60.7836 21.198 61.1386 21.4975 61.1386 21.9857C61.1386 22.4294 60.8502 22.7734 60.24 22.7734H59.0751V21.1869V21.198ZM60.3066 25.325H59.0751V23.5943H60.3399C60.9611 23.5943 61.3605 23.9271 61.3605 24.4596C61.3605 25.0254 60.9278 25.325 60.3066 25.325Z" fill="currentColor"/>
<path d="M57.5332 20.3436H56.335L53.9942 22.8619V20.3436H53.0068V26.1568H53.9942V23.4832L56.335 26.1568H57.5775L54.9705 23.1171L57.5221 20.3325L57.5332 20.3436Z" fill="currentColor"/>
<path d="M68.8047 20.3435H67.8174V26.1567H68.8047V20.3435Z" fill="currentColor"/>
<path d="M37.2645 16.6055L35.4008 12.1013H34.1804V17.9145H35.1234V13.7099L36.8541 17.9035H37.6417L39.3613 13.7099V17.9145H40.2932V12.1013H39.095L37.2423 16.6055H37.2645Z" fill="currentColor"/>
<path d="M55.3143 17.9145H56.3461L54.1828 12.1013H53.1621L51.0099 17.9145H52.0416L52.5298 16.5389H54.8262L55.3254 17.9145H55.3143ZM52.8182 15.6847L53.6613 13.2773L54.5045 15.6847H52.8071H52.8182Z" fill="currentColor"/>
<path d="M65.2322 22.407H64.1117V20.3435H63.1244V26.1567H65.2544C66.4748 26.1567 67.2291 25.3247 67.2291 24.2708C67.2291 23.2168 66.4969 22.3959 65.2322 22.3959V22.407ZM65.1324 25.2914H64.1117V23.2723H65.1324C65.8313 23.2723 66.2307 23.6606 66.2307 24.2819C66.2307 24.9031 65.8202 25.3025 65.1324 25.3025V25.2914Z" fill="currentColor"/>
<path d="M44.1096 5.74458C44.1096 4.69066 43.3885 3.83643 42.1016 3.83643H39.9827V9.64965H40.97V7.64165H42.1238C43.3663 7.64165 44.1096 6.78741 44.1096 5.73349V5.74458ZM40.97 6.78741V4.70175H42.0018C42.7229 4.70175 43.1112 5.12332 43.1112 5.73349C43.1112 6.34366 42.7118 6.77632 42.0018 6.77632H40.97V6.78741Z" fill="currentColor"/>
<path d="M49.7896 25.3587C48.769 25.3587 48.1255 24.4823 48.1255 23.2508C48.1255 22.0194 48.7801 21.143 49.7896 21.143C50.6328 21.143 51.0876 21.6533 51.254 22.2413H52.2414C52.075 21.1541 51.2429 20.2444 49.8007 20.2444C48.2254 20.2444 47.1382 21.4869 47.1382 23.2508C47.1382 25.0148 48.2587 26.2573 49.8007 26.2573C51.3428 26.2573 52.1637 25.1479 52.2636 24.2493H51.2651C51.1764 24.7485 50.6993 25.3587 49.7896 25.3587Z" fill="currentColor"/>
<path d="M43.5549 17.1155C42.6341 17.1155 42.2014 16.5165 42.0794 16.0949H41.092C41.2141 16.9047 41.9352 18.0141 43.5438 18.0141C45.0637 18.0141 46.2174 16.8936 46.2174 15.0077C46.2174 13.1217 45.108 12.0012 43.5549 12.0012C42.1238 12.0012 41.2917 12.922 41.1142 13.9205H42.0905C42.2569 13.388 42.7118 12.8998 43.566 12.8998C44.4202 12.8998 45.0637 13.4767 45.2079 14.5417H42.9003V15.3849H45.219C45.1191 16.4721 44.4868 17.1266 43.566 17.1266L43.5549 17.1155Z" fill="currentColor"/>
<path d="M43.8544 20.2549C42.2124 20.2549 41.1252 21.4974 41.1252 23.2613C41.1252 25.0253 42.2124 26.2678 43.8544 26.2678C45.4963 26.2678 46.5835 25.0253 46.5835 23.2613C46.5835 21.4974 45.4963 20.2549 43.8544 20.2549ZM43.8544 25.3581C42.7782 25.3581 42.1459 24.4817 42.1459 23.2502C42.1459 22.0188 42.7893 21.1424 43.8544 21.1424C44.9194 21.1424 45.5739 22.0188 45.5739 23.2502C45.5739 24.4817 44.9305 25.3581 43.8544 25.3581Z" fill="currentColor"/>
<path d="M2.16331 22.607L2.90661 22.3629C2.76239 21.9302 2.97317 21.5641 3.25052 21.431C3.36146 21.3756 3.4724 21.3312 3.59443 21.2979C4.26007 21.0538 5.15868 20.7321 5.60244 18.9904C5.83541 18.0585 6.20151 17.6258 6.60089 17.4372C6.37901 18.2471 6.47886 19.0236 6.55651 19.6782C6.61198 20.1108 6.66745 20.5213 6.61198 20.843C6.52323 21.3312 6.16823 21.7527 5.53587 22.141L5.40274 22.2298L5.35837 22.3851C5.35837 22.3851 4.73711 24.615 4.40429 25.7688L4.37101 25.8797L4.40429 25.9906C4.43757 26.1238 4.48195 26.2569 4.51523 26.3789C4.68164 26.9891 4.82586 27.4772 4.82586 28.3093H5.669C5.669 27.3552 5.51368 26.8005 5.32509 26.157C5.3029 26.0683 5.26962 25.9795 5.24743 25.8908C5.39165 25.3805 5.59134 24.6926 5.75775 24.0825C6.01291 24.0159 6.24588 23.9604 6.45667 23.905C7.57716 23.6276 8.14295 23.4834 9.25234 22.8843C10.1288 22.3962 10.7833 21.5641 11.0607 21.1648C11.7929 21.2313 13.8674 21.3645 15.3096 21.0871C16.6631 20.8319 17.4619 20.5102 17.8501 20.3105L19.2702 22.2409L19.1592 22.3185L18.66 22.6957L18.9373 23.0396C18.9373 23.0396 19.5919 23.8384 19.9247 24.2822C19.9913 24.382 20.3019 24.848 19.8471 25.325C19.4366 25.7577 18.5823 25.8464 18.0942 25.4914C17.9056 25.3583 17.7836 25.1697 17.7503 24.9478C17.717 24.737 17.7725 24.504 17.8834 24.3487C18.3161 23.7829 18.4159 23.1173 18.1497 22.5848C17.9278 22.141 17.4951 21.8748 16.9737 21.8748C16.6631 21.8748 16.297 21.8748 15.8643 21.8748C14.7771 21.8748 13.4126 21.9081 12.048 21.8748L11.2825 21.8526L11.6597 22.5071C11.6597 22.5071 11.926 22.9509 12.1811 23.4612C11.5044 23.2948 10.517 23.195 9.33 23.4945C8.0431 23.8273 6.70074 24.8923 6.5787 26.5342C6.52323 27.2221 6.72292 27.8433 7.1223 28.2982C7.46622 28.6976 7.94326 28.9194 8.49795 28.9638H8.61999C9.23015 28.9638 9.79594 28.6975 10.1399 28.2316C10.4838 27.7878 10.5725 27.2332 10.4061 26.7228C10.3395 26.5453 10.273 26.39 10.1731 26.2569C10.7389 26.1681 11.0939 26.39 11.2049 26.6119C11.4711 27.1111 10.9608 27.6214 10.9386 27.6325L10.6946 27.8655L11.7929 29.7071H15.0545V28.864H13.9451C13.8563 28.7752 13.7343 28.6421 13.6344 28.4424C13.5568 28.2982 13.346 27.7989 13.6788 27.5549C13.9007 27.3885 14.1115 27.3885 14.5996 27.5771C14.9102 27.688 15.1654 27.8322 15.4539 27.9764C16.175 28.3425 16.9183 28.7419 18.2828 28.7641L18.66 29.7071H22.0547V28.864H20.6236L20.5238 28.4979C21.2116 28.2538 21.8107 27.8766 22.2544 27.3774C22.9755 26.5786 23.2973 25.4914 23.2085 24.2711C23.3195 24.149 23.5302 23.9383 23.6967 23.7718L24.1182 23.3614L23.1198 22.8621C22.2766 22.4517 21.8661 22.0745 21.5 20.8209L21.2671 19.9444L20.4683 20.2329C19.9913 20.3993 19.6695 20.8209 19.5919 21.2979L18.66 20.0332C19.3811 20.0332 20.0911 19.7447 20.4128 19.5561C21.7996 18.7463 22.5207 18.3247 22.8757 18.1139C23.4415 18.7907 24.3956 20.0443 24.5842 20.6323C24.6729 20.8985 24.6951 21.8748 24.6729 22.5071L25.5161 22.5293C25.5161 22.252 25.5493 20.8763 25.394 20.3771C25.0723 19.423 23.4748 17.526 23.2862 17.3152L23.0976 17.0822L23.0754 17.0267C22.4763 17.3374 21.8329 17.415 21.3558 17.415C21.5999 17.0822 21.7996 16.6606 21.9105 16.1281L23.9629 15.0187C24.451 15.5734 25.2609 16.5497 25.4495 17.06C25.5604 17.3485 25.6159 18.3913 25.6381 19.0458L26.4812 19.0236C26.4812 18.7352 26.4258 17.293 26.2483 16.7716C25.9265 15.9062 24.5287 14.3753 24.3623 14.1867L24.1404 13.9426L21.9549 15.1297C21.8107 14.0536 21.0896 13.166 20.5349 12.4782C20.4128 12.3229 20.2908 12.1676 20.191 12.0455C20.0135 11.7904 19.8027 11.4354 19.6141 11.0915C19.8692 11.1248 20.1577 11.1137 20.4794 11.0249C20.6902 11.0693 21.2893 11.2801 21.7663 11.4798L22.0215 11.5907L22.4652 11.1691C23.0199 10.6366 23.031 9.7491 22.4985 9.2055L20.8677 7.54141V6.92015L20.6347 6.80921C20.5238 6.75374 19.6252 6.32108 19.1038 6.24342C18.3605 6.0992 17.0958 6.07701 16.064 7.15312L15.0212 6.85358C15.0878 6.48748 15.121 6.28779 15.1321 6.06591L15.1543 5.88841C15.3318 4.66808 14.6107 3.82494 14.0782 3.41446C14.2335 3.02618 14.3001 2.44929 13.8452 1.99444C13.468 1.61725 13.0021 1.52849 12.3143 1.71709C11.9149 1.82803 11.5599 2.09428 11.1938 2.37163C11.0496 2.48257 10.8832 2.60461 10.7278 2.71554C9.8847 3.29243 9.17468 2.74883 8.81968 2.37163L8.20951 2.95961C8.74202 3.5254 9.36328 3.82494 9.97345 3.82494C10.395 3.82494 10.8055 3.69181 11.216 3.42556C11.3935 3.30352 11.5599 3.1704 11.7152 3.05946C12.0369 2.81539 12.2921 2.6157 12.5361 2.54914C13.0465 2.41601 13.1685 2.52695 13.2573 2.6157C13.4902 2.84867 13.2573 3.21477 13.224 3.24805C12.7691 3.42556 11.5932 3.92478 11.4378 5.32262C11.3935 5.64435 11.3713 6.01045 11.3491 6.28779C10.8055 6.28779 9.8736 6.36545 9.03046 6.92015L5.86869 2.59351L5.18087 3.09274L6.66745 5.13402C6.51214 5.3559 6.05729 6.0881 6.32354 6.66499C6.50104 7.04218 7.05574 8.18486 7.29981 8.69518C6.81167 9.28316 5.46931 11.036 4.7593 13.0329L4.53742 13.6542L5.19196 13.5876C6.17932 13.4878 6.63417 13.7096 7.11121 13.9426C7.3109 14.0425 7.51059 14.1312 7.75466 14.2089C8.64217 14.4973 9.27453 14.3864 9.82923 14.2976C9.90688 14.4307 9.98454 14.575 10.0733 14.697C9.89579 14.697 9.70719 14.7192 9.5075 14.7636H9.44094C9.01937 14.8634 8.60889 14.9522 8.18732 15.1962C7.8656 14.8634 7.26653 14.4307 6.31245 14.4307C4.83695 14.4307 3.76084 15.3626 3.36146 17.0045C3.00645 18.48 2.64035 18.9127 2.34082 19.2455C2.20769 19.4008 2.05238 19.5783 1.95253 19.8113C1.50877 20.7765 1.61971 21.542 2.008 22.6181H2.10784L2.16331 22.607ZM19.7472 28.8418H19.2258L19.1814 28.7308C19.3589 28.7308 19.5253 28.6976 19.7028 28.6643L19.7472 28.8307V28.8418ZM20.2132 22.5737L20.2575 22.4628C20.2575 22.4628 20.4683 21.9081 20.435 21.4976C20.435 21.309 20.5349 21.1204 20.7013 21.0316C21.145 22.5293 21.7219 23.0729 22.6982 23.5611C22.5873 23.672 22.4985 23.7829 22.443 23.8495L22.3432 23.9826L22.3654 24.1379C22.4763 25.203 22.2323 26.1127 21.6332 26.7672C21.2893 27.1444 20.8344 27.455 20.2908 27.6436L19.5364 27.8322C19.3145 27.8655 19.0816 27.8877 18.8486 27.8988H18.4492C17.1845 27.8988 16.53 27.5549 15.8421 27.1999C15.5537 27.0557 15.2542 26.8892 14.9102 26.7561C14.5441 26.6119 13.8563 26.3456 13.1907 26.8449C12.6249 27.2553 12.5029 28.0208 12.8912 28.7863C12.8912 28.7863 12.8912 28.8196 12.9133 28.8307H12.2921L11.7707 27.9543C12.0924 27.5327 12.3365 26.856 11.9704 26.1792C11.6375 25.5802 10.8942 25.2584 10.0622 25.3916C9.01937 25.5469 8.60889 26.1016 8.46467 26.5897C8.44248 26.6341 8.43139 26.6895 8.4203 26.7339V26.8005C8.4203 27.0778 8.64217 27.3108 8.93062 27.3108C9.21906 27.3108 9.44094 27.0889 9.44094 26.8005C9.44094 26.745 9.44094 26.6896 9.41875 26.6452C9.49641 26.6896 9.57406 26.7783 9.64063 26.9669C9.72938 27.211 9.67391 27.4772 9.5075 27.6991C9.29672 27.9764 8.94171 28.1207 8.57561 28.0874C8.25389 28.0652 7.98763 27.9432 7.78794 27.7102C7.54387 27.4328 7.43293 27.0224 7.45512 26.5564C7.55497 25.1586 8.83077 24.4597 9.56297 24.2822C11.5044 23.794 12.7469 24.5151 12.8024 24.5373L13.823 25.1586L13.4126 24.027C13.2683 23.6165 13.0021 23.1062 12.7913 22.6957C13.934 22.7179 15.0434 22.6957 15.8976 22.6957C16.3303 22.6957 16.6964 22.6957 16.9959 22.6957C17.1845 22.6957 17.3398 22.7845 17.4064 22.9398C17.5062 23.1284 17.5062 23.4612 17.2289 23.8162C16.9737 24.1601 16.8739 24.615 16.9293 25.0587C16.9959 25.5025 17.24 25.8797 17.6061 26.1459C18.4381 26.745 19.7583 26.623 20.4572 25.8686C21.1229 25.1586 21.0119 24.2933 20.5903 23.7275C20.3907 23.4612 20.08 23.084 19.8581 22.8067L20.191 22.6181L20.2132 22.5737ZM11.7152 7.13093L12.1922 7.21968L12.2144 6.73155C12.2144 6.73155 12.2477 5.96607 12.3254 5.40028C12.4363 4.51276 13.1574 4.17995 13.5568 4.02463C13.8563 4.24651 14.5109 4.82339 14.3777 5.74419L14.3556 5.92169C14.3112 6.19904 14.2779 6.43201 14.178 7.04218L14.1004 7.41937L15.5759 7.84095C14.8437 9.12784 14.8548 10.7365 14.9324 11.868C15.0101 12.9774 15.3429 13.9981 15.3651 14.0314L16.1639 13.7651C16.1639 13.7651 15.8421 12.7999 15.7756 11.8126C15.6979 10.7143 15.6868 9.11675 16.4634 8.00735C17.2178 6.95343 18.2384 6.87577 18.9595 6.99781C19.2258 7.04218 19.7139 7.24187 20.0246 7.38609V7.81876L21.8883 9.73801C21.9882 9.84895 22.0437 9.98208 22.0326 10.1152C22.0326 10.2594 21.966 10.4036 21.8772 10.4924L21.8329 10.5368C21.4002 10.3704 20.7568 10.1263 20.4572 10.1152H20.3907L20.3241 10.1374C19.5142 10.3593 19.0816 9.95989 19.0705 9.9377L18.66 9.50504L18.3937 10.0486C18.2939 10.2372 18.2828 10.3371 18.7488 11.2357C18.8708 11.4798 19.2036 12.0899 19.5031 12.5004C19.6141 12.6446 19.7361 12.811 19.8692 12.9663C20.5016 13.754 21.2893 14.7192 21.1007 15.8286C20.9897 16.5275 20.668 16.938 20.2464 17.3374L19.7805 17.77L20.3574 18.0363C20.4905 18.1028 20.7235 18.1472 21.0119 18.1805C20.7235 18.3469 20.3907 18.5355 19.9913 18.7685C19.7028 18.9238 18.4492 19.4452 17.839 18.8683L9.56297 7.5525C10.5392 6.93124 11.693 7.10875 11.7041 7.10875L11.7152 7.13093ZM9.70719 15.6067H9.77376C10.4727 15.4514 11.1605 15.7065 11.1605 15.7065C11.5044 15.9506 11.9149 16.1392 12.3254 16.2502L12.5472 15.4403C11.6486 15.1962 10.8832 14.5195 10.5614 13.6875L10.4394 13.3768L10.1066 13.4323C10.0067 13.4323 9.90688 13.4656 9.80704 13.4878C9.28562 13.5765 8.79749 13.6542 8.09857 13.4323C7.90997 13.3657 7.74357 13.2992 7.55497 13.2104C7.1223 13.0107 6.64527 12.7777 5.8576 12.7556C6.72292 10.7476 8.17623 9.08347 8.18732 9.06128L8.36483 8.85049L8.25389 8.59533C8.25389 8.59533 7.41075 6.80921 7.16668 6.30998C7.1334 6.25451 7.18887 6.07701 7.27762 5.87732L17.3398 19.6005C16.9848 19.7558 16.2859 20.0221 15.1654 20.2329C13.5568 20.5435 10.9275 20.2773 10.9053 20.2773L10.6391 20.244L10.506 20.4769C10.506 20.4769 9.82923 21.5974 8.86405 22.1188C7.84341 22.6735 7.36637 22.7956 6.26807 23.0729C6.19041 23.0951 6.12385 23.1173 6.0351 23.1284C6.07947 22.9842 6.11276 22.851 6.14604 22.7623C6.90043 22.252 7.34418 21.664 7.46622 20.9873C7.55497 20.5435 7.4884 20.0665 7.42184 19.5672C7.3109 18.6243 7.17777 17.648 7.94326 16.6606C8.56452 15.873 9.03046 15.7731 9.72938 15.6289L9.70719 15.6067ZM3.07302 19.8002C3.40584 19.423 3.86069 18.8905 4.26007 17.2042C4.47085 16.3278 5.02555 15.285 6.39011 15.285C7.00027 15.285 7.38856 15.529 7.59934 15.7287C7.4884 15.8397 7.36637 15.9839 7.25543 16.1281C7.16668 16.2391 7.10012 16.3389 7.03355 16.4498C6.16823 16.5275 5.22524 17.0267 4.79258 18.7685C4.45976 20.0776 3.90506 20.2773 3.31708 20.488C3.18396 20.5435 3.02864 20.599 2.89551 20.6544C2.79567 20.6988 2.70692 20.7654 2.61817 20.8209C2.65145 20.6101 2.70692 20.4104 2.80676 20.1774C2.89551 20.0332 2.97317 19.9333 3.09521 19.8002H3.07302Z" fill="currentColor"/>
<path d="M0 26.3679C0 29.7738 2.03019 31.8039 5.43603 31.8039H9.42985C11.1383 31.8039 12.7802 32.5361 13.9229 33.823L14.2446 34.167L14.5663 33.823C15.709 32.5472 17.3509 31.8039 19.0594 31.8039H23.0532C26.5589 31.8039 28.4892 29.8736 28.4892 26.3679V0.141846H0V26.3568V26.3679ZM0.843139 0.996078H27.6461V26.3679C27.6461 29.3744 26.0597 30.9608 23.0532 30.9608H19.0594C17.2622 30.9608 15.5315 31.6708 14.2446 32.9244C12.9688 31.6708 11.2271 30.9608 9.42985 30.9608H5.43603C2.51832 30.9608 0.843139 29.2856 0.843139 26.3679V0.996078Z" fill="currentColor"/>
</svg>
