<svg width="38" height="38" viewBox="0 0 38 38" fill="none" xmlns="http://www.w3.org/2000/svg">
<path d="M24.1074 0C35.5452 3.16787e-05 38 2.45104 38 13.8926V24.1074C38 35.5452 35.549 38 24.1074 38H13.8926C2.45484 38 3.17133e-05 35.549 0 24.1074V13.8926C3.15042e-05 2.45484 2.45104 3.18702e-05 13.8926 0H24.1074ZM19.2354 4.54199C11.2326 4.54222 4.47852 10.7352 4.47852 18.9668C4.47856 22.4132 5.11603 24.7919 5.67773 26.9277C6.14931 28.6615 6.56543 30.2495 6.56543 32.1289C6.76654 34.6324 11.3786 33.1693 12.835 31.2969C15.1373 32.9612 16.4623 33.377 19.3125 33.377C27.1913 33.3347 33.5482 26.9219 33.5215 19.043C33.5215 11.04 27.2452 4.54199 19.2354 4.54199ZM19.4297 11.6572V11.6641C23.4685 11.8954 26.5776 15.319 26.4199 19.3613C26.1488 23.3953 22.6985 26.4696 18.6602 26.2754C17.396 26.174 16.1811 25.7413 15.1377 25.0205C14.5068 25.6514 13.4943 26.4695 13.0918 26.373C12.2527 26.1511 11.2675 21.8859 11.8223 18.3838C12.495 14.1536 15.5324 11.4563 19.4297 11.6572Z" fill="white"/>
</svg>
