<svg width="38" height="38" viewBox="0 0 38 38" fill="none" xmlns="http://www.w3.org/2000/svg">
<mask id="mask0_4_102803" style="mask-type:luminance" maskUnits="userSpaceOnUse" x="0" y="0" width="38" height="38">
<path d="M38 0H0V38H38V0Z" fill="white"/>
</mask>
<g mask="url(#mask0_4_102803)">
<mask id="mask1_4_102803" style="mask-type:luminance" maskUnits="userSpaceOnUse" x="0" y="0" width="38" height="38">
<path d="M28.7878 0H9.21216C4.12396 0 0 4.12441 0 9.21212V28.7878C0 33.8756 4.12396 38 9.21216 38H28.7878C33.876 38 38 33.8756 38 28.7878V9.21212C38 4.12441 33.876 0 28.7878 0Z" fill="white"/>
</mask>
<g mask="url(#mask1_4_102803)">
<path d="M23.8508 18.1325H12.6247V13.69H23.8508C24.5073 13.69 24.9633 13.8043 25.1922 14.0039C25.4202 14.2035 25.5627 14.5738 25.5627 15.1145V16.7096C25.5627 17.2795 25.4202 17.6497 25.1922 17.8493C24.9633 18.0489 24.5073 18.1342 23.8508 18.1342V18.1325ZM24.6213 9.50171H20.4318H16.2423H7.86328V28.5H12.6247V22.3191H21.3989L25.5627 28.5H30.8941L26.3037 22.29C27.9957 22.0392 28.7557 21.5206 29.3827 20.6659C30.0097 19.8112 30.3232 18.4447 30.3232 16.6209V15.1964C30.3232 14.1148 30.2092 13.2601 30.0097 12.605C29.8092 11.9499 29.4682 11.38 28.9827 10.8682C28.4707 10.3837 27.9007 10.0425 27.2157 9.81388C26.5308 9.61429 25.6748 9.5 24.6213 9.5V9.50171Z" fill="white"/>
<path d="M57.3779 1.14441e-05C57.3779 10.4934 48.8716 19 38.3779 19C36.2452 19 34.1941 18.6484 32.2789 17.9999C32.3198 17.5484 32.3388 17.0868 32.3388 16.6209V15.1964C32.3388 13.9869 32.2124 12.9207 31.9369 12.0171C31.6386 11.0427 31.1294 10.2041 30.4454 9.48216L30.4074 9.44208L30.3675 9.40413C29.6379 8.7147 28.8124 8.22255 27.8529 7.90245L27.8158 7.89016L27.7788 7.87927C26.8668 7.61324 25.8123 7.48485 24.621 7.48485H22.606V7.48655H20.9103C19.9242 5.18922 19.3779 2.65837 19.3779 1.14441e-05C19.3779 -10.4934 27.8852 -19 38.3779 -19C48.8716 -19 57.3779 -10.4934 57.3779 1.14441e-05Z" fill="white"/>
</g>
<path d="M9.06129 0.950195H28.9391C33.4184 0.950195 37.0502 4.58185 37.0502 9.06173V28.9386C37.0502 33.4185 33.4184 37.0502 28.9391 37.0502H9.06129C4.58204 37.0502 0.950195 33.4185 0.950195 28.9386V9.06173C0.950195 4.58185 4.58204 0.950195 9.06129 0.950195Z" stroke="white" stroke-width="2"/>
</g>
</svg>
