<svg width="882" height="660" viewBox="0 0 882 660" fill="none" xmlns="http://www.w3.org/2000/svg">
<path d="M1 658.553C7.18367 650.977 33.309 622.479 83.22 574.741C116.475 542.935 172.18 502.73 237.802 461.63C303.424 420.53 378.9 381.541 444.004 341.847C509.108 302.152 561.553 262.935 593.108 237.893C634.972 204.672 646.313 187.376 651.193 176.504C653.367 171.661 652.853 167.382 651.346 163.653C648.228 155.939 639.293 151.717 630.6 150.059C626.408 149.259 622.359 151.524 620.134 154.019C617.91 156.513 617.555 159.928 619.549 163.335C628.962 179.412 662.815 178.084 712.566 172.796C742.041 169.663 778.402 154.58 810.509 140.322C842.615 126.064 868.931 110.267 899.839 87.5882C930.747 64.9098 965.449 35.8294 1000.38 1" stroke="#539635" stroke-width="2" stroke-linecap="round"/>
</svg>
