<svg width="226" height="410" viewBox="0 0 226 410" fill="none" xmlns="http://www.w3.org/2000/svg">
<path d="M1 408.555C1 402.026 2.24461 382.676 8.08749 364.306C11.7224 352.878 20.6 338.595 44.8466 305.696C69.0931 272.797 109.432 222.078 132.047 192.954C158.949 158.309 162.112 149.893 161.669 146.543C161.455 144.919 160.342 143.637 159.31 143.415C158.278 143.192 157.125 144.115 156.25 145.507C155.375 146.899 154.814 148.732 155.721 150.107C163.531 161.945 193.725 150.671 209.833 143.854C218.441 140.211 226.771 133.716 241.542 120.501C256.313 107.286 276.976 86.9137 295.736 65.7065C314.495 44.4993 330.723 23.0743 347.443 1.00006" stroke="#539635" stroke-width="2" stroke-linecap="round"/>
</svg>
