<svg width="50" height="50" viewBox="0 0 50 50" fill="none" xmlns="http://www.w3.org/2000/svg">
<path d="M25 50C38.8071 50 50 38.8071 50 25C50 11.1929 38.8071 0 25 0C11.1929 0 0 11.1929 0 25C0 38.8071 11.1929 50 25 50Z" fill="#E7E7E7"/>
<path fill-rule="evenodd" clip-rule="evenodd" d="M25 46C36.598 46 46 36.598 46 25C46 13.402 36.598 4 25 4C13.402 4 4 13.402 4 25C4 36.598 13.402 46 25 46ZM50 25C50 38.8071 38.8071 50 25 50C11.1929 50 0 38.8071 0 25C0 11.1929 11.1929 0 25 0C38.8071 0 50 11.1929 50 25Z" fill="#3B3393"/>
<path fill-rule="evenodd" clip-rule="evenodd" d="M23.5857 10.0858C24.3667 9.30474 25.6331 9.30474 26.4141 10.0858L39.142 22.8137C39.9231 23.5948 39.9231 24.8611 39.142 25.6421C38.361 26.4232 37.0947 26.4232 36.3136 25.6421L26.9999 16.3284V40.5C26.9999 41.6046 26.1045 42.5 24.9999 42.5C23.8953 42.5 22.9999 41.6046 22.9999 40.5V16.3284L13.6862 25.6421C12.9051 26.4232 11.6388 26.4232 10.8578 25.6421C10.0767 24.8611 10.0767 23.5948 10.8578 22.8137L23.5857 10.0858Z" fill="#3B3393"/>
</svg>
