<svg width="804" height="209" viewBox="0 0 804 209" fill="none" xmlns="http://www.w3.org/2000/svg">
<path d="M1 207.576C1.12674 207.576 1.25349 207.576 13.983 197.751C26.7126 187.926 52.0411 168.276 79.6557 149.571C107.27 130.865 136.403 113.701 165.085 99.209C193.767 84.7174 221.114 73.419 249.109 64.2354C277.104 55.0518 304.917 48.3253 325.711 44.0906C346.504 39.8559 359.434 38.3168 376.56 37.9631C439.995 36.6527 452.654 46.9538 460.526 52.4916C464.48 55.2725 466.43 59.6294 467.696 63.7996C468.4 66.119 468.337 69.0765 467.28 71.1359C465.174 75.2403 458.606 75.4883 452.885 75.0617C447.644 74.6709 443.762 71.4089 441.875 68.435C441.066 67.1592 442.6 65.5334 489.402 56.1781C536.203 46.8227 628.747 29.5764 682.317 18.767C735.886 7.95764 747.678 4.10777 757.28 0.287849C783.464 -12.6875 791.533 -19.6261 797.517 -26.1215C800.017 -29.1246 801.43 -31.5328 802.885 -34.5009" stroke="#0B5729" stroke-width="2" stroke-linecap="round"/>
</svg>
