<svg width="2550" height="37" viewBox="0 0 2550 37" fill="none" xmlns="http://www.w3.org/2000/svg">
<path d="M383.825 6.61182H394.489V30.6909H390.877V22.7792H387.437V30.6909H383.825V6.61182ZM390.877 19.3393V10.0517H387.437V19.3393H390.877Z" fill="#FF121F"/>
<path d="M371.951 10.0517V6.61182H382.442V10.0517H379.002V30.6909H375.391V10.0517H371.951Z" fill="#FF121F"/>
<path d="M363.687 10.0517V19.3393H367.127V10.0517H363.687ZM369.156 22.7792H363.687V30.6909H360.075V6.61182H369.156C370.12 6.61182 370.739 7.26539 370.739 8.19415V21.1968C370.739 22.1256 370.12 22.7792 369.156 22.7792Z" fill="#FF121F"/>
<path d="M350.788 27.251H354.399V10.0517H350.788V27.251ZM356.429 30.6909H348.758C347.795 30.6909 347.176 30.0373 347.176 29.1085V8.19415C347.176 7.26539 347.795 6.61182 348.758 6.61182H356.429C357.392 6.61182 358.011 7.26539 358.011 8.19415V29.1085C358.011 30.0373 357.392 30.6909 356.429 30.6909Z" fill="#FF121F"/>
<path d="M334.108 6.61182H345.116V30.6909H341.504V10.0517H337.72V30.6909H334.108V6.61182Z" fill="#FF121F"/>
<path d="M332.204 30.6909H323.295C322.332 30.6909 321.713 30.0373 321.713 29.1085V8.19415C321.713 7.26539 322.332 6.61182 323.295 6.61182H332.204V13.4915H328.593V10.0517H325.325V27.251H328.593V22.7792H332.204V30.6909Z" fill="#FF121F"/>
<path d="M306.58 27.251H310.192V10.0517H306.58V27.251ZM312.221 30.6909H304.551C303.587 30.6909 302.968 30.0373 302.968 29.1085V8.19415C302.968 7.26539 303.587 6.61182 304.551 6.61182H312.221C313.185 6.61182 313.804 7.26539 313.804 8.19415V29.1085C313.804 30.0373 313.185 30.6909 312.221 30.6909Z" fill="#FF121F"/>
<path d="M292.991 6.61182H301.591V10.0517H296.603V30.6909H292.991V6.61182Z" fill="#FF121F"/>
<path d="M283.704 27.251H287.315V10.0517H283.704V27.251ZM289.345 30.6909H281.674C280.711 30.6909 280.092 30.0373 280.092 29.1085V8.19415C280.092 7.26539 280.711 6.61182 281.674 6.61182H289.345C290.308 6.61182 290.927 7.26539 290.927 8.19415V29.1085C290.927 30.0373 290.308 30.6909 289.345 30.6909Z" fill="#FF121F"/>
<path d="M275.169 17.6194L278.884 30.6909H275.066L271.901 19.3393H270.972V30.6909H267.36V6.61182H270.972V15.8994H272.004L275.066 6.61182H278.884L275.169 17.6194Z" fill="#FF121F"/>
<path d="M265.456 30.6909H256.547C255.584 30.6909 254.964 30.0373 254.964 29.1085V8.19415C254.964 7.26539 255.584 6.61182 256.547 6.61182H265.456V13.4915H261.844V10.0517H258.576V27.251H261.844V22.7792H265.456V30.6909Z" fill="#FF121F"/>
<path d="M249.281 15.8994V10.0517H246.013V15.8994H249.281ZM249.281 19.3393H246.013V27.251H249.281V19.3393ZM252.892 8.19415V14.9363C252.892 16.3122 252.17 17.241 251.104 17.6194C252.17 17.9978 252.892 18.8921 252.892 20.3025V29.1085C252.892 30.0373 252.273 30.6909 251.31 30.6909H242.401V6.61182H251.31C252.273 6.61182 252.892 7.26539 252.892 8.19415Z" fill="#FF121F"/>
<path d="M233.113 27.251H236.725V10.0517H233.113V27.251ZM238.755 30.6909H231.084C230.121 30.6909 229.501 30.0373 229.501 29.1085V8.19415C229.501 7.26539 230.121 6.61182 231.084 6.61182H238.755C239.718 6.61182 240.337 7.26539 240.337 8.19415V29.1085C240.337 30.0373 239.718 30.6909 238.755 30.6909Z" fill="#FF121F"/>
<path d="M224.579 17.6194L228.294 30.6909H224.475L221.311 19.3393H220.382V30.6909H216.77V6.61182H220.382V15.8994H221.414L224.475 6.61182H228.294L224.579 17.6194Z" fill="#FF121F"/>
<path d="M214.866 30.6909H205.957C204.994 30.6909 204.375 30.0373 204.375 29.1085V8.19415C204.375 7.26539 204.994 6.61182 205.957 6.61182H214.866V13.4915H211.254V10.0517H207.986V27.251H211.254V22.7792H214.866V30.6909Z" fill="#FF121F"/>
<path d="M195.087 27.251H198.699V10.0517H195.087V27.251ZM200.728 30.6909H193.057C192.094 30.6909 191.475 30.0373 191.475 29.1085V8.19415C191.475 7.26539 192.094 6.61182 193.057 6.61182H200.728C201.691 6.61182 202.311 7.26539 202.311 8.19415V29.1085C202.311 30.0373 201.691 30.6909 200.728 30.6909Z" fill="#FF121F"/>
<path d="M182.041 20.3713L185 6.61182H189.403V30.6909H185.791V20.3713L186.376 13.4915H186.204L183.693 25.875H180.321L177.742 13.4915H177.57L178.223 20.3713V30.6909H174.611V6.61182H179.014L181.938 20.3713H182.041Z" fill="#FF121F"/>
<path d="M159.983 18.9953V27.251H163.251V18.9953H159.983ZM165.28 30.6909H156.371V6.61182H159.983V15.5555H165.28C166.243 15.5555 166.863 16.209 166.863 17.1378V29.1085C166.863 30.0373 166.243 30.6909 165.28 30.6909Z" fill="#FF121F"/>
<path d="M150.703 6.61182H154.315V30.6909H150.703V19.3393H146.747V30.6909H143.135V6.61182H146.747V15.8994H150.703V6.61182Z" fill="#FF121F"/>
<path d="M132.285 30.6909V6.61182H141.229V10.0517H135.897V15.8994H141.057V19.3393H135.897V27.251H141.229V30.6909H132.285Z" fill="#FF121F"/>
<path d="M123.38 27.251H126.098V10.0517H124.55L123.38 27.251ZM121.144 6.61182H129.709V27.251H130.913V33.8555H127.302V30.6909H121.97V33.8555H118.358V27.251H119.734L121.144 6.61182Z" fill="#FF121F"/>
<path d="M103.577 5.5799L102.889 3H107.877L107.189 5.5799H103.577ZM111.317 30.6909H107.705V17.2066L103.749 25.4967V30.6909H100.137V6.61186H103.749V18.8578L107.705 10.5677V6.61186H111.317V30.6909Z" fill="#FF121F"/>
<path d="M98.0814 30.6909H94.4696V17.2066L90.5137 25.4967V30.6909H86.9019V6.61182H90.5137V18.8577L94.4696 10.5677V6.61182H98.0814V30.6909Z" fill="#FF121F"/>
<path d="M81.2342 6.61182H84.8461V30.6909H81.2342V19.3393H77.2784V30.6909H73.6665V6.61182H77.2784V15.8994H81.2342V6.61182Z" fill="#FF121F"/>
<path d="M64.2333 20.3713L67.1916 6.61182H71.5946V30.6909H67.9828V20.3713L68.5675 13.4915H68.3956L65.8845 25.875H62.5134L59.9335 13.4915H59.7615L60.4151 20.3713V30.6909H56.8032V6.61182H61.2062L64.1301 20.3713H64.2333Z" fill="#FF121F"/>
<path d="M54.7469 30.6909H51.1351V17.2066L47.1792 25.4967V30.6909H43.5674V6.61182H47.1792V18.8577L51.1351 10.5677V6.61182H54.7469V30.6909Z" fill="#FF121F"/>
<path d="M41.4916 20.3025V29.1085C41.4916 30.0373 40.8724 30.6909 39.9092 30.6909H31V22.7792H34.6119V27.251H37.8797V19.3393H34.6119V15.8994H37.8797V10.0517H34.6119V13.4915H31V6.61182H39.9092C40.8724 6.61182 41.4916 7.26539 41.4916 8.19415V14.9363C41.4916 16.3122 40.838 17.241 39.7372 17.6194C40.838 17.9978 41.4916 18.8921 41.4916 20.3025Z" fill="#FF121F"/>
<path d="M1233.63 6.61182H1244.29V30.6909H1240.68V22.7792H1237.24V30.6909H1233.63V6.61182ZM1240.68 19.3393V10.0517H1237.24V19.3393H1240.68Z" fill="#FF121F"/>
<path d="M1221.76 10.0517V6.61182H1232.25V10.0517H1228.81V30.6909H1225.2V10.0517H1221.76Z" fill="#FF121F"/>
<path d="M1213.49 10.0517V19.3393H1216.93V10.0517H1213.49ZM1218.96 22.7792H1213.49V30.6909H1209.88V6.61182H1218.96C1219.92 6.61182 1220.54 7.26539 1220.54 8.19415V21.1968C1220.54 22.1256 1219.92 22.7792 1218.96 22.7792Z" fill="#FF121F"/>
<path d="M1200.59 27.251H1204.2V10.0517H1200.59V27.251ZM1206.23 30.6909H1198.56C1197.6 30.6909 1196.98 30.0373 1196.98 29.1085V8.19415C1196.98 7.26539 1197.6 6.61182 1198.56 6.61182H1206.23C1207.2 6.61182 1207.82 7.26539 1207.82 8.19415V29.1085C1207.82 30.0373 1207.2 30.6909 1206.23 30.6909Z" fill="#FF121F"/>
<path d="M1183.91 6.61182H1194.92V30.6909H1191.31V10.0517H1187.53V30.6909H1183.91V6.61182Z" fill="#FF121F"/>
<path d="M1182.01 30.6909H1173.1C1172.14 30.6909 1171.52 30.0373 1171.52 29.1085V8.19415C1171.52 7.26539 1172.14 6.61182 1173.1 6.61182H1182.01V13.4915H1178.4V10.0517H1175.13V27.251H1178.4V22.7792H1182.01V30.6909Z" fill="#FF121F"/>
<path d="M1156.39 27.251H1160V10.0517H1156.39V27.251ZM1162.03 30.6909H1154.36C1153.39 30.6909 1152.77 30.0373 1152.77 29.1085V8.19415C1152.77 7.26539 1153.39 6.61182 1154.36 6.61182H1162.03C1162.99 6.61182 1163.61 7.26539 1163.61 8.19415V29.1085C1163.61 30.0373 1162.99 30.6909 1162.03 30.6909Z" fill="#FF121F"/>
<path d="M1142.8 6.61182H1151.4V10.0517H1146.41V30.6909H1142.8V6.61182Z" fill="#FF121F"/>
<path d="M1133.51 27.251H1137.12V10.0517H1133.51V27.251ZM1139.15 30.6909H1131.48C1130.52 30.6909 1129.9 30.0373 1129.9 29.1085V8.19415C1129.9 7.26539 1130.52 6.61182 1131.48 6.61182H1139.15C1140.11 6.61182 1140.73 7.26539 1140.73 8.19415V29.1085C1140.73 30.0373 1140.11 30.6909 1139.15 30.6909Z" fill="#FF121F"/>
<path d="M1124.97 17.6194L1128.69 30.6909H1124.87L1121.71 19.3393H1120.78V30.6909H1117.17V6.61182H1120.78V15.8994H1121.81L1124.87 6.61182H1128.69L1124.97 17.6194Z" fill="#FF121F"/>
<path d="M1115.26 30.6909H1106.35C1105.39 30.6909 1104.77 30.0373 1104.77 29.1085V8.19415C1104.77 7.26539 1105.39 6.61182 1106.35 6.61182H1115.26V13.4915H1111.65V10.0517H1108.38V27.251H1111.65V22.7792H1115.26V30.6909Z" fill="#FF121F"/>
<path d="M1099.09 15.8994V10.0517H1095.82V15.8994H1099.09ZM1099.09 19.3393H1095.82V27.251H1099.09V19.3393ZM1102.7 8.19415V14.9363C1102.7 16.3122 1101.98 17.241 1100.91 17.6194C1101.98 17.9978 1102.7 18.8921 1102.7 20.3025V29.1085C1102.7 30.0373 1102.08 30.6909 1101.12 30.6909H1092.21V6.61182H1101.12C1102.08 6.61182 1102.7 7.26539 1102.7 8.19415Z" fill="#FF121F"/>
<path d="M1082.92 27.251H1086.53V10.0517H1082.92V27.251ZM1088.56 30.6909H1080.89C1079.93 30.6909 1079.31 30.0373 1079.31 29.1085V8.19415C1079.31 7.26539 1079.93 6.61182 1080.89 6.61182H1088.56C1089.52 6.61182 1090.14 7.26539 1090.14 8.19415V29.1085C1090.14 30.0373 1089.52 30.6909 1088.56 30.6909Z" fill="#FF121F"/>
<path d="M1074.38 17.6194L1078.1 30.6909H1074.28L1071.12 19.3393H1070.19V30.6909H1066.58V6.61182H1070.19V15.8994H1071.22L1074.28 6.61182H1078.1L1074.38 17.6194Z" fill="#FF121F"/>
<path d="M1064.67 30.6909H1055.76C1054.8 30.6909 1054.18 30.0373 1054.18 29.1085V8.19415C1054.18 7.26539 1054.8 6.61182 1055.76 6.61182H1064.67V13.4915H1061.06V10.0517H1057.79V27.251H1061.06V22.7792H1064.67V30.6909Z" fill="#FF121F"/>
<path d="M1044.89 27.251H1048.5V10.0517H1044.89V27.251ZM1050.53 30.6909H1042.86C1041.9 30.6909 1041.28 30.0373 1041.28 29.1085V8.19415C1041.28 7.26539 1041.9 6.61182 1042.86 6.61182H1050.53C1051.5 6.61182 1052.12 7.26539 1052.12 8.19415V29.1085C1052.12 30.0373 1051.5 30.6909 1050.53 30.6909Z" fill="#FF121F"/>
<path d="M1031.85 20.3713L1034.8 6.61182H1039.21V30.6909H1035.6V20.3713L1036.18 13.4915H1036.01L1033.5 25.875H1030.13L1027.55 13.4915H1027.37L1028.03 20.3713V30.6909H1024.42V6.61182H1028.82L1031.74 20.3713H1031.85Z" fill="#FF121F"/>
<path d="M1009.79 18.9953V27.251H1013.06V18.9953H1009.79ZM1015.09 30.6909H1006.18V6.61182H1009.79V15.5555H1015.09C1016.05 15.5555 1016.67 16.209 1016.67 17.1378V29.1085C1016.67 30.0373 1016.05 30.6909 1015.09 30.6909Z" fill="#FF121F"/>
<path d="M1000.51 6.61182H1004.12V30.6909H1000.51V19.3393H996.552V30.6909H992.94V6.61182H996.552V15.8994H1000.51V6.61182Z" fill="#FF121F"/>
<path d="M982.09 30.6909V6.61182H991.034V10.0517H985.702V15.8994H990.862V19.3393H985.702V27.251H991.034V30.6909H982.09Z" fill="#FF121F"/>
<path d="M973.185 27.251H975.903V10.0517H974.355L973.185 27.251ZM970.949 6.61182H979.515V27.251H980.719V33.8555H977.107V30.6909H971.775V33.8555H968.163V27.251H969.539L970.949 6.61182Z" fill="#FF121F"/>
<path d="M953.382 5.5799L952.694 3H957.682L956.994 5.5799H953.382ZM961.122 30.6909H957.51V17.2066L953.554 25.4967V30.6909H949.942V6.61186H953.554V18.8578L957.51 10.5677V6.61186H961.122V30.6909Z" fill="#FF121F"/>
<path d="M947.887 30.6909H944.275V17.2066L940.319 25.4967V30.6909H936.707V6.61182H940.319V18.8577L944.275 10.5677V6.61182H947.887V30.6909Z" fill="#FF121F"/>
<path d="M931.039 6.61182H934.651V30.6909H931.039V19.3393H927.084V30.6909H923.472V6.61182H927.084V15.8994H931.039V6.61182Z" fill="#FF121F"/>
<path d="M914.039 20.3713L916.997 6.61182H921.4V30.6909H917.788V20.3713L918.373 13.4915H918.201L915.69 25.875H912.319L909.739 13.4915H909.567L910.22 20.3713V30.6909H906.608V6.61182H911.011L913.935 20.3713H914.039Z" fill="#FF121F"/>
<path d="M904.552 30.6909H900.94V17.2066L896.984 25.4967V30.6909H893.373V6.61182H896.984V18.8577L900.94 10.5677V6.61182H904.552V30.6909Z" fill="#FF121F"/>
<path d="M891.297 20.3025V29.1085C891.297 30.0373 890.678 30.6909 889.714 30.6909H880.805V22.7792H884.417V27.251H887.685V19.3393H884.417V15.8994H887.685V10.0517H884.417V13.4915H880.805V6.61182H889.714C890.678 6.61182 891.297 7.26539 891.297 8.19415V14.9363C891.297 16.3122 890.643 17.241 889.542 17.6194C890.643 17.9978 891.297 18.8921 891.297 20.3025Z" fill="#FF121F"/>
<path d="M2083.44 6.61182H2094.1V30.6909H2090.49V22.7792H2087.05V30.6909H2083.44V6.61182ZM2090.49 19.3393V10.0517H2087.05V19.3393H2090.49Z" fill="#FF121F"/>
<path d="M2071.56 10.0517V6.61182H2082.05V10.0517H2078.61V30.6909H2075V10.0517H2071.56Z" fill="#FF121F"/>
<path d="M2063.3 10.0517V19.3393H2066.74V10.0517H2063.3ZM2068.77 22.7792H2063.3V30.6909H2059.69V6.61182H2068.77C2069.73 6.61182 2070.35 7.26539 2070.35 8.19415V21.1968C2070.35 22.1256 2069.73 22.7792 2068.77 22.7792Z" fill="#FF121F"/>
<path d="M2050.4 27.251H2054.01V10.0517H2050.4V27.251ZM2056.04 30.6909H2048.37C2047.41 30.6909 2046.79 30.0373 2046.79 29.1085V8.19415C2046.79 7.26539 2047.41 6.61182 2048.37 6.61182H2056.04C2057 6.61182 2057.62 7.26539 2057.62 8.19415V29.1085C2057.62 30.0373 2057 30.6909 2056.04 30.6909Z" fill="#FF121F"/>
<path d="M2033.72 6.61182H2044.73V30.6909H2041.11V10.0517H2037.33V30.6909H2033.72V6.61182Z" fill="#FF121F"/>
<path d="M2031.81 30.6909H2022.91C2021.94 30.6909 2021.32 30.0373 2021.32 29.1085V8.19415C2021.32 7.26539 2021.94 6.61182 2022.91 6.61182H2031.81V13.4915H2028.2V10.0517H2024.94V27.251H2028.2V22.7792H2031.81V30.6909Z" fill="#FF121F"/>
<path d="M2006.19 27.251H2009.8V10.0517H2006.19V27.251ZM2011.83 30.6909H2004.16C2003.2 30.6909 2002.58 30.0373 2002.58 29.1085V8.19415C2002.58 7.26539 2003.2 6.61182 2004.16 6.61182H2011.83C2012.79 6.61182 2013.41 7.26539 2013.41 8.19415V29.1085C2013.41 30.0373 2012.79 30.6909 2011.83 30.6909Z" fill="#FF121F"/>
<path d="M1992.6 6.61182H2001.2V10.0517H1996.21V30.6909H1992.6V6.61182Z" fill="#FF121F"/>
<path d="M1983.31 27.251H1986.93V10.0517H1983.31V27.251ZM1988.96 30.6909H1981.28C1980.32 30.6909 1979.7 30.0373 1979.7 29.1085V8.19415C1979.7 7.26539 1980.32 6.61182 1981.28 6.61182H1988.96C1989.92 6.61182 1990.54 7.26539 1990.54 8.19415V29.1085C1990.54 30.0373 1989.92 30.6909 1988.96 30.6909Z" fill="#FF121F"/>
<path d="M1974.78 17.6194L1978.49 30.6909H1974.68L1971.51 19.3393H1970.58V30.6909H1966.97V6.61182H1970.58V15.8994H1971.61L1974.68 6.61182H1978.49L1974.78 17.6194Z" fill="#FF121F"/>
<path d="M1965.07 30.6909H1956.16C1955.19 30.6909 1954.57 30.0373 1954.57 29.1085V8.19415C1954.57 7.26539 1955.19 6.61182 1956.16 6.61182H1965.07V13.4915H1961.45V10.0517H1958.19V27.251H1961.45V22.7792H1965.07V30.6909Z" fill="#FF121F"/>
<path d="M1948.89 15.8994V10.0517H1945.62V15.8994H1948.89ZM1948.89 19.3393H1945.62V27.251H1948.89V19.3393ZM1952.5 8.19415V14.9363C1952.5 16.3122 1951.78 17.241 1950.71 17.6194C1951.78 17.9978 1952.5 18.8921 1952.5 20.3025V29.1085C1952.5 30.0373 1951.88 30.6909 1950.92 30.6909H1942.01V6.61182H1950.92C1951.88 6.61182 1952.5 7.26539 1952.5 8.19415Z" fill="#FF121F"/>
<path d="M1932.72 27.251H1936.34V10.0517H1932.72V27.251ZM1938.37 30.6909H1930.69C1929.73 30.6909 1929.11 30.0373 1929.11 29.1085V8.19415C1929.11 7.26539 1929.73 6.61182 1930.69 6.61182H1938.37C1939.33 6.61182 1939.95 7.26539 1939.95 8.19415V29.1085C1939.95 30.0373 1939.33 30.6909 1938.37 30.6909Z" fill="#FF121F"/>
<path d="M1924.19 17.6194L1927.9 30.6909H1924.09L1920.92 19.3393H1919.99V30.6909H1916.38V6.61182H1919.99V15.8994H1921.02L1924.09 6.61182H1927.9L1924.19 17.6194Z" fill="#FF121F"/>
<path d="M1914.48 30.6909H1905.57C1904.6 30.6909 1903.98 30.0373 1903.98 29.1085V8.19415C1903.98 7.26539 1904.6 6.61182 1905.57 6.61182H1914.48V13.4915H1910.86V10.0517H1907.6V27.251H1910.86V22.7792H1914.48V30.6909Z" fill="#FF121F"/>
<path d="M1894.7 27.251H1898.31V10.0517H1894.7V27.251ZM1900.34 30.6909H1892.67C1891.7 30.6909 1891.09 30.0373 1891.09 29.1085V8.19415C1891.09 7.26539 1891.7 6.61182 1892.67 6.61182H1900.34C1901.3 6.61182 1901.92 7.26539 1901.92 8.19415V29.1085C1901.92 30.0373 1901.3 30.6909 1900.34 30.6909Z" fill="#FF121F"/>
<path d="M1881.65 20.3713L1884.61 6.61182H1889.01V30.6909H1885.4V20.3713L1885.99 13.4915H1885.81L1883.3 25.875H1879.93L1877.35 13.4915H1877.18L1877.83 20.3713V30.6909H1874.22V6.61182H1878.62L1881.55 20.3713H1881.65Z" fill="#FF121F"/>
<path d="M1859.59 18.9953V27.251H1862.86V18.9953H1859.59ZM1864.89 30.6909H1855.98V6.61182H1859.59V15.5555H1864.89C1865.85 15.5555 1866.47 16.209 1866.47 17.1378V29.1085C1866.47 30.0373 1865.85 30.6909 1864.89 30.6909Z" fill="#FF121F"/>
<path d="M1850.31 6.61182H1853.93V30.6909H1850.31V19.3393H1846.36V30.6909H1842.75V6.61182H1846.36V15.8994H1850.31V6.61182Z" fill="#FF121F"/>
<path d="M1831.9 30.6909V6.61182H1840.84V10.0517H1835.51V15.8994H1840.67V19.3393H1835.51V27.251H1840.84V30.6909H1831.9Z" fill="#FF121F"/>
<path d="M1822.99 27.251H1825.71V10.0517H1824.16L1822.99 27.251ZM1820.75 6.61182H1829.32V27.251H1830.52V33.8555H1826.91V30.6909H1821.58V33.8555H1817.97V27.251H1819.34L1820.75 6.61182Z" fill="#FF121F"/>
<path d="M1803.19 5.5799L1802.5 3H1807.49L1806.8 5.5799H1803.19ZM1810.93 30.6909H1807.32V17.2066L1803.36 25.4967V30.6909H1799.75V6.61186H1803.36V18.8578L1807.32 10.5677V6.61186H1810.93V30.6909Z" fill="#FF121F"/>
<path d="M1797.69 30.6909H1794.08V17.2066L1790.12 25.4967V30.6909H1786.51V6.61182H1790.12V18.8577L1794.08 10.5677V6.61182H1797.69V30.6909Z" fill="#FF121F"/>
<path d="M1780.84 6.61182H1784.46V30.6909H1780.84V19.3393H1776.89V30.6909H1773.28V6.61182H1776.89V15.8994H1780.84V6.61182Z" fill="#FF121F"/>
<path d="M1763.84 20.3713L1766.8 6.61182H1771.2V30.6909H1767.59V20.3713L1768.18 13.4915H1768.01L1765.49 25.875H1762.12L1759.54 13.4915H1759.37L1760.03 20.3713V30.6909H1756.41V6.61182H1760.82L1763.74 20.3713H1763.84Z" fill="#FF121F"/>
<path d="M1754.36 30.6909H1750.75V17.2066L1746.79 25.4967V30.6909H1743.18V6.61182H1746.79V18.8577L1750.75 10.5677V6.61182H1754.36V30.6909Z" fill="#FF121F"/>
<path d="M1741.1 20.3025V29.1085C1741.1 30.0373 1740.48 30.6909 1739.52 30.6909H1730.61V22.7792H1734.22V27.251H1737.49V19.3393H1734.22V15.8994H1737.49V10.0517H1734.22V13.4915H1730.61V6.61182H1739.52C1740.48 6.61182 1741.1 7.26539 1741.1 8.19415V14.9363C1741.1 16.3122 1740.45 17.241 1739.35 17.6194C1740.45 17.9978 1741.1 18.8921 1741.1 20.3025Z" fill="#FF121F"/>
<path d="M808.728 6.61182H819.391V30.6909H815.779V22.7792H812.339V30.6909H808.728V6.61182ZM815.779 19.3393V10.0517H812.339V19.3393H815.779Z" fill="#539635"/>
<path d="M796.853 10.0517V6.61182H807.345V10.0517H803.905V30.6909H800.293V10.0517H796.853Z" fill="#539635"/>
<path d="M788.589 10.0517V19.3393H792.029V10.0517H788.589ZM794.059 22.7792H788.589V30.6909H784.978V6.61182H794.059C795.022 6.61182 795.641 7.26539 795.641 8.19415V21.1968C795.641 22.1256 795.022 22.7792 794.059 22.7792Z" fill="#539635"/>
<path d="M775.69 27.251H779.302V10.0517H775.69V27.251ZM781.331 30.6909H773.66C772.697 30.6909 772.078 30.0373 772.078 29.1085V8.19415C772.078 7.26539 772.697 6.61182 773.66 6.61182H781.331C782.295 6.61182 782.914 7.26539 782.914 8.19415V29.1085C782.914 30.0373 782.295 30.6909 781.331 30.6909Z" fill="#539635"/>
<path d="M759.011 6.61182H770.018V30.6909H766.406V10.0517H762.623V30.6909H759.011V6.61182Z" fill="#539635"/>
<path d="M757.107 30.6909H748.198C747.234 30.6909 746.615 30.0373 746.615 29.1085V8.19415C746.615 7.26539 747.234 6.61182 748.198 6.61182H757.107V13.4915H753.495V10.0517H750.227V27.251H753.495V22.7792H757.107V30.6909Z" fill="#539635"/>
<path d="M731.482 27.251H735.094V10.0517H731.482V27.251ZM737.124 30.6909H729.453C728.49 30.6909 727.871 30.0373 727.871 29.1085V8.19415C727.871 7.26539 728.49 6.61182 729.453 6.61182H737.124C738.087 6.61182 738.706 7.26539 738.706 8.19415V29.1085C738.706 30.0373 738.087 30.6909 737.124 30.6909Z" fill="#539635"/>
<path d="M717.894 6.61182H726.493V10.0517H721.505V30.6909H717.894V6.61182Z" fill="#539635"/>
<path d="M708.606 27.251H712.218V10.0517H708.606V27.251ZM714.247 30.6909H706.576C705.613 30.6909 704.994 30.0373 704.994 29.1085V8.19415C704.994 7.26539 705.613 6.61182 706.576 6.61182H714.247C715.211 6.61182 715.83 7.26539 715.83 8.19415V29.1085C715.83 30.0373 715.211 30.6909 714.247 30.6909Z" fill="#539635"/>
<path d="M700.071 17.6194L703.786 30.6909H699.968L696.803 19.3393H695.875V30.6909H692.263V6.61182H695.875V15.8994H696.906L699.968 6.61182H703.786L700.071 17.6194Z" fill="#539635"/>
<path d="M690.358 30.6909H681.449C680.486 30.6909 679.867 30.0373 679.867 29.1085V8.19415C679.867 7.26539 680.486 6.61182 681.449 6.61182H690.358V13.4915H686.746V10.0517H683.479V27.251H686.746V22.7792H690.358V30.6909Z" fill="#539635"/>
<path d="M674.183 15.8994V10.0517H670.915V15.8994H674.183ZM674.183 19.3393H670.915V27.251H674.183V19.3393ZM677.795 8.19415V14.9363C677.795 16.3122 677.072 17.241 676.006 17.6194C677.072 17.9978 677.795 18.8921 677.795 20.3025V29.1085C677.795 30.0373 677.176 30.6909 676.212 30.6909H667.303V6.61182H676.212C677.176 6.61182 677.795 7.26539 677.795 8.19415Z" fill="#539635"/>
<path d="M658.016 27.251H661.628V10.0517H658.016V27.251ZM663.657 30.6909H655.986C655.023 30.6909 654.404 30.0373 654.404 29.1085V8.19415C654.404 7.26539 655.023 6.61182 655.986 6.61182H663.657C664.62 6.61182 665.239 7.26539 665.239 8.19415V29.1085C665.239 30.0373 664.62 30.6909 663.657 30.6909Z" fill="#539635"/>
<path d="M649.481 17.6194L653.196 30.6909H649.378L646.213 19.3393H645.284V30.6909H641.672V6.61182H645.284V15.8994H646.316L649.378 6.61182H653.196L649.481 17.6194Z" fill="#539635"/>
<path d="M639.768 30.6909H630.859C629.896 30.6909 629.277 30.0373 629.277 29.1085V8.19415C629.277 7.26539 629.896 6.61182 630.859 6.61182H639.768V13.4915H636.157V10.0517H632.889V27.251H636.157V22.7792H639.768V30.6909Z" fill="#539635"/>
<path d="M619.989 27.251H623.601V10.0517H619.989V27.251ZM625.631 30.6909H617.96C616.997 30.6909 616.377 30.0373 616.377 29.1085V8.19415C616.377 7.26539 616.997 6.61182 617.96 6.61182H625.631C626.594 6.61182 627.213 7.26539 627.213 8.19415V29.1085C627.213 30.0373 626.594 30.6909 625.631 30.6909Z" fill="#539635"/>
<path d="M606.944 20.3713L609.902 6.61182H614.305V30.6909H610.693V20.3713L611.278 13.4915H611.106L608.595 25.875H605.224L602.644 13.4915H602.472L603.126 20.3713V30.6909H599.514V6.61182H603.917L606.841 20.3713H606.944Z" fill="#539635"/>
<path d="M584.885 18.9953V27.251H588.153V18.9953H584.885ZM590.183 30.6909H581.273V6.61182H584.885V15.5555H590.183C591.146 15.5555 591.765 16.209 591.765 17.1378V29.1085C591.765 30.0373 591.146 30.6909 590.183 30.6909Z" fill="#539635"/>
<path d="M575.605 6.61182H579.217V30.6909H575.605V19.3393H571.649V30.6909H568.038V6.61182H571.649V15.8994H575.605V6.61182Z" fill="#539635"/>
<path d="M557.188 30.6909V6.61182H566.131V10.0517H560.799V15.8994H565.959V19.3393H560.799V27.251H566.131V30.6909H557.188Z" fill="#539635"/>
<path d="M548.282 27.251H551V10.0517H549.452L548.282 27.251ZM546.047 6.61182H554.612V27.251H555.816V33.8555H552.204V30.6909H546.872V33.8555H543.26V27.251H544.636L546.047 6.61182Z" fill="#539635"/>
<path d="M528.479 5.5799L527.791 3H532.779L532.091 5.5799H528.479ZM536.219 30.6909H532.607V17.2066L528.651 25.4967V30.6909H525.04V6.61186H528.651V18.8578L532.607 10.5677V6.61186H536.219V30.6909Z" fill="#539635"/>
<path d="M522.984 30.6909H519.372V17.2066L515.416 25.4967V30.6909H511.804V6.61182H515.416V18.8577L519.372 10.5677V6.61182H522.984V30.6909Z" fill="#539635"/>
<path d="M506.137 6.61182H509.748V30.6909H506.137V19.3393H502.181V30.6909H498.569V6.61182H502.181V15.8994H506.137V6.61182Z" fill="#539635"/>
<path d="M489.136 20.3713L492.094 6.61182H496.497V30.6909H492.885V20.3713L493.47 13.4915H493.298L490.787 25.875H487.416L484.836 13.4915H484.664L485.317 20.3713V30.6909H481.706V6.61182H486.109L489.032 20.3713H489.136Z" fill="#539635"/>
<path d="M479.649 30.6909H476.037V17.2066L472.082 25.4967V30.6909H468.47V6.61182H472.082V18.8577L476.037 10.5677V6.61182H479.649V30.6909Z" fill="#539635"/>
<path d="M466.394 20.3025V29.1085C466.394 30.0373 465.775 30.6909 464.812 30.6909H455.902V22.7792H459.514V27.251H462.782V19.3393H459.514V15.8994H462.782V10.0517H459.514V13.4915H455.902V6.61182H464.812C465.775 6.61182 466.394 7.26539 466.394 8.19415V14.9363C466.394 16.3122 465.74 17.241 464.64 17.6194C465.74 17.9978 466.394 18.8921 466.394 20.3025Z" fill="#539635"/>
<path d="M1658.53 6.61182H1669.2V30.6909H1665.58V22.7792H1662.15V30.6909H1658.53V6.61182ZM1665.58 19.3393V10.0517H1662.15V19.3393H1665.58Z" fill="#539635"/>
<path d="M1646.66 10.0517V6.61182H1657.15V10.0517H1653.71V30.6909H1650.1V10.0517H1646.66Z" fill="#539635"/>
<path d="M1638.4 10.0517V19.3393H1641.83V10.0517H1638.4ZM1643.86 22.7792H1638.4V30.6909H1634.78V6.61182H1643.86C1644.83 6.61182 1645.45 7.26539 1645.45 8.19415V21.1968C1645.45 22.1256 1644.83 22.7792 1643.86 22.7792Z" fill="#539635"/>
<path d="M1625.5 27.251H1629.11V10.0517H1625.5V27.251ZM1631.14 30.6909H1623.47C1622.5 30.6909 1621.88 30.0373 1621.88 29.1085V8.19415C1621.88 7.26539 1622.5 6.61182 1623.47 6.61182H1631.14C1632.1 6.61182 1632.72 7.26539 1632.72 8.19415V29.1085C1632.72 30.0373 1632.1 30.6909 1631.14 30.6909Z" fill="#539635"/>
<path d="M1608.82 6.61182H1619.82V30.6909H1616.21V10.0517H1612.43V30.6909H1608.82V6.61182Z" fill="#539635"/>
<path d="M1606.91 30.6909H1598C1597.04 30.6909 1596.42 30.0373 1596.42 29.1085V8.19415C1596.42 7.26539 1597.04 6.61182 1598 6.61182H1606.91V13.4915H1603.3V10.0517H1600.03V27.251H1603.3V22.7792H1606.91V30.6909Z" fill="#539635"/>
<path d="M1581.29 27.251H1584.9V10.0517H1581.29V27.251ZM1586.93 30.6909H1579.26C1578.3 30.6909 1577.68 30.0373 1577.68 29.1085V8.19415C1577.68 7.26539 1578.3 6.61182 1579.26 6.61182H1586.93C1587.89 6.61182 1588.51 7.26539 1588.51 8.19415V29.1085C1588.51 30.0373 1587.89 30.6909 1586.93 30.6909Z" fill="#539635"/>
<path d="M1567.7 6.61182H1576.3V10.0517H1571.31V30.6909H1567.7V6.61182Z" fill="#539635"/>
<path d="M1558.41 27.251H1562.02V10.0517H1558.41V27.251ZM1564.05 30.6909H1556.38C1555.42 30.6909 1554.8 30.0373 1554.8 29.1085V8.19415C1554.8 7.26539 1555.42 6.61182 1556.38 6.61182H1564.05C1565.02 6.61182 1565.64 7.26539 1565.64 8.19415V29.1085C1565.64 30.0373 1565.02 30.6909 1564.05 30.6909Z" fill="#539635"/>
<path d="M1549.88 17.6194L1553.59 30.6909H1549.77L1546.61 19.3393H1545.68V30.6909H1542.07V6.61182H1545.68V15.8994H1546.71L1549.77 6.61182H1553.59L1549.88 17.6194Z" fill="#539635"/>
<path d="M1540.16 30.6909H1531.25C1530.29 30.6909 1529.67 30.0373 1529.67 29.1085V8.19415C1529.67 7.26539 1530.29 6.61182 1531.25 6.61182H1540.16V13.4915H1536.55V10.0517H1533.28V27.251H1536.55V22.7792H1540.16V30.6909Z" fill="#539635"/>
<path d="M1523.99 15.8994V10.0517H1520.72V15.8994H1523.99ZM1523.99 19.3393H1520.72V27.251H1523.99V19.3393ZM1527.6 8.19415V14.9363C1527.6 16.3122 1526.88 17.241 1525.81 17.6194C1526.88 17.9978 1527.6 18.8921 1527.6 20.3025V29.1085C1527.6 30.0373 1526.98 30.6909 1526.02 30.6909H1517.11V6.61182H1526.02C1526.98 6.61182 1527.6 7.26539 1527.6 8.19415Z" fill="#539635"/>
<path d="M1507.82 27.251H1511.43V10.0517H1507.82V27.251ZM1513.46 30.6909H1505.79C1504.83 30.6909 1504.21 30.0373 1504.21 29.1085V8.19415C1504.21 7.26539 1504.83 6.61182 1505.79 6.61182H1513.46C1514.43 6.61182 1515.05 7.26539 1515.05 8.19415V29.1085C1515.05 30.0373 1514.43 30.6909 1513.46 30.6909Z" fill="#539635"/>
<path d="M1499.29 17.6194L1503 30.6909H1499.18L1496.02 19.3393H1495.09V30.6909H1491.48V6.61182H1495.09V15.8994H1496.12L1499.18 6.61182H1503L1499.29 17.6194Z" fill="#539635"/>
<path d="M1489.57 30.6909H1480.66C1479.7 30.6909 1479.08 30.0373 1479.08 29.1085V8.19415C1479.08 7.26539 1479.7 6.61182 1480.66 6.61182H1489.57V13.4915H1485.96V10.0517H1482.69V27.251H1485.96V22.7792H1489.57V30.6909Z" fill="#539635"/>
<path d="M1469.79 27.251H1473.41V10.0517H1469.79V27.251ZM1475.44 30.6909H1467.77C1466.8 30.6909 1466.18 30.0373 1466.18 29.1085V8.19415C1466.18 7.26539 1466.8 6.61182 1467.77 6.61182H1475.44C1476.4 6.61182 1477.02 7.26539 1477.02 8.19415V29.1085C1477.02 30.0373 1476.4 30.6909 1475.44 30.6909Z" fill="#539635"/>
<path d="M1456.75 20.3713L1459.71 6.61182H1464.11V30.6909H1460.5V20.3713L1461.08 13.4915H1460.91L1458.4 25.875H1455.03L1452.45 13.4915H1452.28L1452.93 20.3713V30.6909H1449.32V6.61182H1453.72L1456.65 20.3713H1456.75Z" fill="#539635"/>
<path d="M1434.69 18.9953V27.251H1437.96V18.9953H1434.69ZM1439.99 30.6909H1431.08V6.61182H1434.69V15.5555H1439.99C1440.95 15.5555 1441.57 16.209 1441.57 17.1378V29.1085C1441.57 30.0373 1440.95 30.6909 1439.99 30.6909Z" fill="#539635"/>
<path d="M1425.41 6.61182H1429.02V30.6909H1425.41V19.3393H1421.46V30.6909H1417.84V6.61182H1421.46V15.8994H1425.41V6.61182Z" fill="#539635"/>
<path d="M1406.99 30.6909V6.61182H1415.94V10.0517H1410.61V15.8994H1415.76V19.3393H1410.61V27.251H1415.94V30.6909H1406.99Z" fill="#539635"/>
<path d="M1398.09 27.251H1400.81V10.0517H1399.26L1398.09 27.251ZM1395.85 6.61182H1404.42V27.251H1405.62V33.8555H1402.01V30.6909H1396.68V33.8555H1393.07V27.251H1394.44L1395.85 6.61182Z" fill="#539635"/>
<path d="M1378.29 5.5799L1377.6 3H1382.58L1381.9 5.5799H1378.29ZM1386.02 30.6909H1382.41V17.2066L1378.46 25.4967V30.6909H1374.85V6.61186H1378.46V18.8578L1382.41 10.5677V6.61186H1386.02V30.6909Z" fill="#539635"/>
<path d="M1372.79 30.6909H1369.18V17.2066L1365.22 25.4967V30.6909H1361.61V6.61182H1365.22V18.8577L1369.18 10.5677V6.61182H1372.79V30.6909Z" fill="#539635"/>
<path d="M1355.94 6.61182H1359.55V30.6909H1355.94V19.3393H1351.99V30.6909H1348.37V6.61182H1351.99V15.8994H1355.94V6.61182Z" fill="#539635"/>
<path d="M1338.94 20.3713L1341.9 6.61182H1346.3V30.6909H1342.69V20.3713L1343.28 13.4915H1343.1L1340.59 25.875H1337.22L1334.64 13.4915H1334.47L1335.12 20.3713V30.6909H1331.51V6.61182H1335.91L1338.84 20.3713H1338.94Z" fill="#539635"/>
<path d="M1329.45 30.6909H1325.84V17.2066L1321.89 25.4967V30.6909H1318.28V6.61182H1321.89V18.8577L1325.84 10.5677V6.61182H1329.45V30.6909Z" fill="#539635"/>
<path d="M1316.2 20.3025V29.1085C1316.2 30.0373 1315.58 30.6909 1314.62 30.6909H1305.71V22.7792H1309.32V27.251H1312.59V19.3393H1309.32V15.8994H1312.59V10.0517H1309.32V13.4915H1305.71V6.61182H1314.62C1315.58 6.61182 1316.2 7.26539 1316.2 8.19415V14.9363C1316.2 16.3122 1315.55 17.241 1314.45 17.6194C1315.55 17.9978 1316.2 18.8921 1316.2 20.3025Z" fill="#539635"/>
<path d="M2508.34 6.61182H2519V30.6909H2515.39V22.7792H2511.95V30.6909H2508.34V6.61182ZM2515.39 19.3393V10.0517H2511.95V19.3393H2515.39Z" fill="#539635"/>
<path d="M2496.46 10.0517V6.61182H2506.96V10.0517H2503.52V30.6909H2499.9V10.0517H2496.46Z" fill="#539635"/>
<path d="M2488.2 10.0517V19.3393H2491.64V10.0517H2488.2ZM2493.67 22.7792H2488.2V30.6909H2484.59V6.61182H2493.67C2494.63 6.61182 2495.25 7.26539 2495.25 8.19415V21.1968C2495.25 22.1256 2494.63 22.7792 2493.67 22.7792Z" fill="#539635"/>
<path d="M2475.3 27.251H2478.91V10.0517H2475.3V27.251ZM2480.94 30.6909H2473.27C2472.31 30.6909 2471.69 30.0373 2471.69 29.1085V8.19415C2471.69 7.26539 2472.31 6.61182 2473.27 6.61182H2480.94C2481.91 6.61182 2482.52 7.26539 2482.52 8.19415V29.1085C2482.52 30.0373 2481.91 30.6909 2480.94 30.6909Z" fill="#539635"/>
<path d="M2458.62 6.61182H2469.63V30.6909H2466.02V10.0517H2462.23V30.6909H2458.62V6.61182Z" fill="#539635"/>
<path d="M2456.72 30.6909H2447.81C2446.85 30.6909 2446.23 30.0373 2446.23 29.1085V8.19415C2446.23 7.26539 2446.85 6.61182 2447.81 6.61182H2456.72V13.4915H2453.11V10.0517H2449.84V27.251H2453.11V22.7792H2456.72V30.6909Z" fill="#539635"/>
<path d="M2431.09 27.251H2434.71V10.0517H2431.09V27.251ZM2436.73 30.6909H2429.06C2428.1 30.6909 2427.48 30.0373 2427.48 29.1085V8.19415C2427.48 7.26539 2428.1 6.61182 2429.06 6.61182H2436.73C2437.7 6.61182 2438.32 7.26539 2438.32 8.19415V29.1085C2438.32 30.0373 2437.7 30.6909 2436.73 30.6909Z" fill="#539635"/>
<path d="M2417.5 6.61182H2426.1V10.0517H2421.12V30.6909H2417.5V6.61182Z" fill="#539635"/>
<path d="M2408.22 27.251H2411.83V10.0517H2408.22V27.251ZM2413.86 30.6909H2406.19C2405.22 30.6909 2404.6 30.0373 2404.6 29.1085V8.19415C2404.6 7.26539 2405.22 6.61182 2406.19 6.61182H2413.86C2414.82 6.61182 2415.44 7.26539 2415.44 8.19415V29.1085C2415.44 30.0373 2414.82 30.6909 2413.86 30.6909Z" fill="#539635"/>
<path d="M2399.68 17.6194L2403.4 30.6909H2399.58L2396.41 19.3393H2395.49V30.6909H2391.87V6.61182H2395.49V15.8994H2396.52L2399.58 6.61182H2403.4L2399.68 17.6194Z" fill="#539635"/>
<path d="M2389.97 30.6909H2381.06C2380.1 30.6909 2379.48 30.0373 2379.48 29.1085V8.19415C2379.48 7.26539 2380.1 6.61182 2381.06 6.61182H2389.97V13.4915H2386.36V10.0517H2383.09V27.251H2386.36V22.7792H2389.97V30.6909Z" fill="#539635"/>
<path d="M2373.79 15.8994V10.0517H2370.53V15.8994H2373.79ZM2373.79 19.3393H2370.53V27.251H2373.79V19.3393ZM2377.41 8.19415V14.9363C2377.41 16.3122 2376.68 17.241 2375.62 17.6194C2376.68 17.9978 2377.41 18.8921 2377.41 20.3025V29.1085C2377.41 30.0373 2376.79 30.6909 2375.82 30.6909H2366.91V6.61182H2375.82C2376.79 6.61182 2377.41 7.26539 2377.41 8.19415Z" fill="#539635"/>
<path d="M2357.63 27.251H2361.24V10.0517H2357.63V27.251ZM2363.27 30.6909H2355.6C2354.63 30.6909 2354.01 30.0373 2354.01 29.1085V8.19415C2354.01 7.26539 2354.63 6.61182 2355.6 6.61182H2363.27C2364.23 6.61182 2364.85 7.26539 2364.85 8.19415V29.1085C2364.85 30.0373 2364.23 30.6909 2363.27 30.6909Z" fill="#539635"/>
<path d="M2349.09 17.6194L2352.81 30.6909H2348.99L2345.82 19.3393H2344.9V30.6909H2341.28V6.61182H2344.9V15.8994H2345.93L2348.99 6.61182H2352.81L2349.09 17.6194Z" fill="#539635"/>
<path d="M2339.38 30.6909H2330.47C2329.51 30.6909 2328.89 30.0373 2328.89 29.1085V8.19415C2328.89 7.26539 2329.51 6.61182 2330.47 6.61182H2339.38V13.4915H2335.77V10.0517H2332.5V27.251H2335.77V22.7792H2339.38V30.6909Z" fill="#539635"/>
<path d="M2319.6 27.251H2323.21V10.0517H2319.6V27.251ZM2325.24 30.6909H2317.57C2316.61 30.6909 2315.99 30.0373 2315.99 29.1085V8.19415C2315.99 7.26539 2316.61 6.61182 2317.57 6.61182H2325.24C2326.2 6.61182 2326.82 7.26539 2326.82 8.19415V29.1085C2326.82 30.0373 2326.2 30.6909 2325.24 30.6909Z" fill="#539635"/>
<path d="M2306.55 20.3713L2309.51 6.61182H2313.92V30.6909H2310.3V20.3713L2310.89 13.4915H2310.72L2308.21 25.875H2304.83L2302.25 13.4915H2302.08L2302.74 20.3713V30.6909H2299.12V6.61182H2303.53L2306.45 20.3713H2306.55Z" fill="#539635"/>
<path d="M2284.5 18.9953V27.251H2287.76V18.9953H2284.5ZM2289.79 30.6909H2280.88V6.61182H2284.5V15.5555H2289.79C2290.76 15.5555 2291.38 16.209 2291.38 17.1378V29.1085C2291.38 30.0373 2290.76 30.6909 2289.79 30.6909Z" fill="#539635"/>
<path d="M2275.22 6.61182H2278.83V30.6909H2275.22V19.3393H2271.26V30.6909H2267.65V6.61182H2271.26V15.8994H2275.22V6.61182Z" fill="#539635"/>
<path d="M2256.8 30.6909V6.61182H2265.74V10.0517H2260.41V15.8994H2265.57V19.3393H2260.41V27.251H2265.74V30.6909H2256.8Z" fill="#539635"/>
<path d="M2247.89 27.251H2250.61V10.0517H2249.06L2247.89 27.251ZM2245.66 6.61182H2254.22V27.251H2255.43V33.8555H2251.81V30.6909H2246.48V33.8555H2242.87V27.251H2244.25L2245.66 6.61182Z" fill="#539635"/>
<path d="M2228.09 5.5799L2227.4 3H2232.39L2231.7 5.5799H2228.09ZM2235.83 30.6909H2232.22V17.2066L2228.26 25.4967V30.6909H2224.65V6.61186H2228.26V18.8578L2232.22 10.5677V6.61186H2235.83V30.6909Z" fill="#539635"/>
<path d="M2222.59 30.6909H2218.98V17.2066L2215.03 25.4967V30.6909H2211.42V6.61182H2215.03V18.8577L2218.98 10.5677V6.61182H2222.59V30.6909Z" fill="#539635"/>
<path d="M2205.75 6.61182H2209.36V30.6909H2205.75V19.3393H2201.79V30.6909H2198.18V6.61182H2201.79V15.8994H2205.75V6.61182Z" fill="#539635"/>
<path d="M2188.75 20.3713L2191.7 6.61182H2196.11V30.6909H2192.5V20.3713L2193.08 13.4915H2192.91L2190.4 25.875H2187.03L2184.45 13.4915H2184.27L2184.93 20.3713V30.6909H2181.32V6.61182H2185.72L2188.64 20.3713H2188.75Z" fill="#539635"/>
<path d="M2179.26 30.6909H2175.65V17.2066L2171.69 25.4967V30.6909H2168.08V6.61182H2171.69V18.8577L2175.65 10.5677V6.61182H2179.26V30.6909Z" fill="#539635"/>
<path d="M2166 20.3025V29.1085C2166 30.0373 2165.39 30.6909 2164.42 30.6909H2155.51V22.7792H2159.13V27.251H2162.39V19.3393H2159.13V15.8994H2162.39V10.0517H2159.13V13.4915H2155.51V6.61182H2164.42C2165.39 6.61182 2166 7.26539 2166 8.19415V14.9363C2166 16.3122 2165.35 17.241 2164.25 17.6194C2165.35 17.9978 2166 18.8921 2166 20.3025Z" fill="#539635"/>
</svg>
