<svg width="1160" height="494" viewBox="0 0 1160 494" fill="none" xmlns="http://www.w3.org/2000/svg">
<path d="M-133.642 492.798C-134.097 492.798 -129.02 487.927 -97.1055 464.257C-70.9409 444.852 -22.7677 412.878 45.829 377.87C114.426 342.863 202.438 306.416 371.328 263.995C540.217 221.574 787.317 174.284 916.142 149.289C1044.97 124.293 1048.03 123.026 1049.86 120.822C1051.69 118.618 1052.19 115.517 1050.66 112.352C1047.12 105.047 1038.07 101.762 1030.77 100.154C1027.3 99.3879 1024.13 99.6069 1023.11 101.118C1022.1 102.629 1023.3 105.651 1027.05 107.208C1030.79 108.765 1037.05 108.765 1062.5 99.9241C1087.96 91.0832 1132.42 73.4012 1162.82 60.1706C1193.22 46.9401 1208.19 38.6967 1221.46 30.5685C1234.72 22.4403 1245.82 14.6772 1260.54 1" stroke="#539635" stroke-width="2" stroke-linecap="round"/>
</svg>
