<svg width="238" height="30" viewBox="0 0 238 30" fill="none" xmlns="http://www.w3.org/2000/svg">
<path d="M154.03 16.0457H145.481V9.20068H138.93V28.6182H145.481V21.5547H154.03V28.6182H160.582V9.20068H154.03V16.0457Z" fill="white"/>
<path d="M227.099 9.20068L221.691 24.0141V9.20068H215.334V28.6182H225.637L231.069 13.7378V28.6182H237.425V9.20068H227.099Z" fill="white"/>
<path d="M176.803 9.20068L171.396 24.0141V9.20068H165.039V28.6182H175.342L180.773 13.7378V28.6182H187.13V9.20068H176.803Z" fill="white"/>
<path d="M207.894 19.0993L211.901 9.20068H205.349L202.452 16.3117C201.379 16.0583 200.231 15.9243 199.016 15.9243H198.139V9.20068H191.587V28.6182H198.139V21.4576H199.016C203.23 21.4576 205.422 24.0549 205.422 28.6182H211.974C211.974 24.8083 210.492 21.4159 207.894 19.0983V19.0993Z" fill="white"/>
<path d="M131.445 19.1061L135.348 9.20068H128.918L126.034 16.3273C125.166 16.1185 124.25 15.9874 123.292 15.9428V9.20165H116.74V15.9408C115.763 15.9836 114.831 16.1156 113.948 16.3282L111.064 9.20165H104.658L108.602 19.0497C105.946 21.3683 104.415 24.7821 104.415 28.6201H110.967C110.967 24.3141 112.899 21.7596 116.74 21.4858V28.6201H123.292V21.4887C127.1 21.781 129.016 24.3316 129.016 28.6201H135.568C135.568 24.8141 134.06 21.4256 131.445 19.108V19.1061Z" fill="white"/>
<path d="M60.9658 9.20068V11.2882C60.9658 16.5554 60.6735 23.4966 55.5342 23.4966V29.1279C63.8175 29.1279 66.7433 22.2839 66.9888 14.7107H72.0239V28.6182H78.576V9.20068H60.9668H60.9658Z" fill="white"/>
<path d="M96.2086 11.2882C96.2086 15.7641 95.6162 18.6585 94.1928 20.4828L88.1464 9.20068H81.2777L88.9268 23.0839C87.8376 23.2383 86.607 23.3034 85.2236 23.3034H82.1302V28.6192H85.4428C98.96 28.6192 102.638 21.5557 102.638 11.2891V9.20165H96.2076V11.2891L96.2086 11.2882Z" fill="white"/>
<path d="M0 19.4185V29.1277C16.1429 29.1277 29.2285 16.0872 29.2285 0H19.4857C19.4857 10.7248 10.7619 19.4185 0 19.4185Z" fill="white"/>
<path d="M40.92 0H31.1771V28.1568H40.92V0Z" fill="white"/>
</svg>
