<?xml version="1.0" encoding="utf-8"?>
<!-- Generator: Adobe Illustrator 27.0.0, SVG Export Plug-In . SVG Version: 6.00 Build 0)  -->
<svg version="1.1" id="Layer_1" xmlns="http://www.w3.org/2000/svg" xmlns:xlink="http://www.w3.org/1999/xlink" x="0px" y="0px"
	 viewBox="0 0 198.43 198.43" style="enable-background:new 0 0 198.43 198.43;" xml:space="preserve">
<style type="text/css">
	.st0{fill:#281E6A;}
	.st1{fill:#FFFFFF;}
</style>
<g>
	<rect x="28.73" y="28.35" class="st0" width="141.35" height="141.35"/>
	<path class="st1" d="M37.58,117.04h32.04l-4.38,7.59h-8.41v25.02h-8.02v-25.02H37.58V117.04z M128.24,124.63l4.38-7.59h-18.6
		c-5.81,0-9.58,3.6-9.58,9.11v14.44c0,5.55,3.77,9.06,9.58,9.06h16.6v-7.59h-16.6c-0.91,0-1.56-0.52-1.56-1.47v-14.44
		c0-0.95,0.65-1.52,1.56-1.52H128.24z M89.98,117.04c5.77,0,9.54,3.6,9.54,9.11v23.51H78.92c-5.77,0-10.02-4.25-10.02-10.02
		c0-5.77,4.25-10.02,10.02-10.02h12.57v-3.47c0-0.95-0.56-1.52-1.52-1.52H70.59l4.38-7.59H89.98 M91.49,136.53H79.9
		c-1.65,0-2.86,1.21-2.86,2.91c0,1.66,1.21,2.87,2.86,2.87h11.59V136.53z M158,124.63l4.38-7.59h-18.6c-5.81,0-9.58,3.6-9.58,9.11
		v14.44c0,5.55,3.77,9.06,9.58,9.06h16.6v-7.59h-16.6c-0.91,0-1.56-0.52-1.56-1.47v-14.44c0-0.95,0.65-1.52,1.56-1.52H158z"/>
</g>
</svg>
