<svg width="1920" height="1214" viewBox="0 0 1920 1214" fill="none" xmlns="http://www.w3.org/2000/svg">
<path d="M-292.667 1C-292.667 11.4447 -261.539 76.8717 -169.302 194.663C-112.002 267.839 -18.0426 355.527 49.6953 419.776C117.433 484.025 160.028 518.933 214.134 557.18C268.24 595.427 332.567 635.955 409.206 675.788C485.845 715.62 572.847 753.528 742.491 803.691C912.135 853.855 1161.79 915.126 1316.9 957.429C1472.02 999.733 1525.04 1021.21 1560.06 1037.54C1637.2 1073.5 1657.66 1109.37 1667.82 1140.48C1670.08 1147.39 1660.22 1153.66 1653.11 1154.39C1645.99 1155.11 1638.03 1150.31 1632.56 1140.59C1620.01 1118.31 1621.49 1092.03 1626.47 1075.51C1631.94 1057.38 1670 1059.23 1728.34 1064.61C1768.36 1070 1829.52 1080.77 1903.68 1106.3C1977.83 1131.82 2063.12 1171.77 2150.99 1212.94" stroke="#FF121F" stroke-width="2" stroke-linecap="round"/>
</svg>
