<svg width="1920" height="352" viewBox="0 0 1920 352" fill="none" xmlns="http://www.w3.org/2000/svg">
<path d="M-192.411 1C-191.52 1 -190.63 1 -80.0067 1.64847C30.6164 2.29694 250.945 3.59388 398.514 12.6426C546.084 21.6914 614.217 38.4526 660.822 52.2723C707.427 66.0921 730.439 76.4624 808.807 117.015C887.175 157.567 1020.2 227.987 1108.79 269.809C1197.37 311.63 1237.48 322.719 1281.16 331.127C1324.84 339.535 1370.88 344.926 1419.1 347.703C1516.2 353.296 1582.16 347.881 1613.08 340.805C1675.86 326.439 1713.82 292.332 1749.25 262.271C1762.42 251.091 1767.3 240.421 1767 233.14C1766.86 229.589 1760.89 227.838 1755.75 226.743C1750.6 225.648 1744.97 225.648 1743.74 227.304C1730.37 245.289 1819.37 231.217 1905.12 205.839C1967.71 187.313 2065.99 147.713 2125.87 123.568C2203.47 89.4734 2230.46 72.9941 2241.84 62.5346C2244.47 58.3046 2240.73 56.2628 2236.88 54.1592" stroke="#FF121F" stroke-width="2" stroke-linecap="round"/>
</svg>
