<svg width="317" height="305" viewBox="0 0 317 305" fill="none" xmlns="http://www.w3.org/2000/svg">
<path d="M1.00012 -28.3286C10.7515 -27.1738 33.0905 -23.4966 53.2805 -15.849C68.7619 -9.98507 94.1543 1.72254 115.087 12.2393C136.02 22.756 151.541 32.1916 164.034 40.8403C176.528 49.489 185.524 57.0649 199.182 71.5002C212.839 85.9354 230.886 107.001 247.754 131.727C264.622 156.454 279.765 184.203 289.049 200.485C300.773 221.047 307.614 228.092 318.451 237.018C325.752 243.032 337.819 250.653 358.736 261.954C379.653 273.256 409.337 287.647 425.774 295.312C442.21 302.978 444.498 303.481 447.94 304" stroke="#0B5729" stroke-width="2" stroke-linecap="round"/>
</svg>
