<svg width="23" height="26" viewBox="0 0 23 26" fill="none" xmlns="http://www.w3.org/2000/svg">
<g clip-path="url(#clip0_178_25516)">
<path d="M21.65 25.857H1.34956C1.32975 25.8438 1.31139 25.8247 1.28964 25.8178C0.431492 25.5615 0 24.9818 0 24.0815C0 17.4714 0 10.8609 0 4.25079C0 3.24614 0.707395 2.52427 1.69456 2.52231C2.68269 2.52035 3.67082 2.52182 4.65895 2.52182C4.74303 2.52182 4.82758 2.52182 4.92036 2.52182C4.92036 2.22239 4.91649 1.96167 4.92132 1.70095C4.93099 1.205 5.27357 0.861458 5.76256 0.858518C6.26847 0.855578 6.77485 0.857538 7.28076 0.858028C7.88668 0.858028 8.21477 1.18687 8.2225 1.80485C8.2254 2.03763 8.2225 2.27041 8.2225 2.50761H14.7775C14.7775 2.23464 14.7688 1.9749 14.7794 1.71614C14.8021 1.17167 15.1244 0.859498 15.654 0.858028C16.144 0.856558 16.6339 0.858028 17.1244 0.858028C17.7617 0.858028 18.0782 1.18393 18.0792 1.83915C18.0792 2.0636 18.0792 2.28757 18.0792 2.52231C19.2007 2.52231 20.2845 2.51937 21.3687 2.52329C22.0665 2.52574 22.6743 2.97318 22.9087 3.64359C22.9377 3.72641 22.9696 3.80826 23.0005 3.89108V24.4873C22.8918 24.7196 22.8062 24.9666 22.67 25.1807C22.4327 25.5522 22.0544 25.7301 21.6504 25.8575L21.65 25.857ZM21.348 9.22011H1.65977V24.1746H21.348V9.22011Z" fill="#EBEBEB"/>
<path d="M31.8433 42.5967H28.1566V53.9028H31.8433V42.5967ZM37.0048 26.67V34.2401H31.8433V29.3244H28.1566V37.6811H34.7436C36.1199 37.6811 37.0048 38.615 37.0048 39.9423V56.5572C37.0048 57.8844 36.1199 58.8184 34.7436 58.8184H25.2563C23.8799 58.8184 22.9951 57.8844 22.9951 56.5572V26.67C22.9951 25.3427 23.8799 24.4088 25.2563 24.4088H34.7436C36.1199 24.4088 37.0048 25.3427 37.0048 26.67Z" fill="#EBEBEB"/>
</g>
<defs>
<clipPath id="clip0_178_25516">
<rect width="23" height="25" fill="white" transform="translate(0 0.856934)"/>
</clipPath>
</defs>
</svg>
