<svg width="60" height="65" viewBox="0 0 60 65" fill="none" xmlns="http://www.w3.org/2000/svg">
<g clip-path="url(#clip0_178_24620)">
<path d="M56.4782 64.5421H3.52059C3.46891 64.5081 3.42101 64.4589 3.36429 64.4413C1.12563 63.7821 0 62.2909 0 59.9753C0 42.9737 0 25.9707 0 8.96903C0 6.385 1.84538 4.52828 4.42059 4.52323C6.99832 4.51819 9.57605 4.52197 12.1538 4.52197C12.3731 4.52197 12.5937 4.52197 12.8357 4.52197C12.8357 3.7518 12.8256 3.08122 12.8382 2.41063C12.8634 1.135 13.7571 0.251384 15.0328 0.243821C16.3525 0.236258 17.6735 0.2413 18.9933 0.242561C20.5739 0.242561 21.4298 1.08836 21.45 2.67786C21.4576 3.27659 21.45 3.87533 21.45 4.48542H38.55C38.55 3.78332 38.5273 3.11525 38.555 2.4497C38.6143 1.04928 39.455 0.246342 40.8366 0.242561C42.1147 0.238779 43.3929 0.242561 44.6723 0.242561C46.3349 0.242561 47.1605 1.0808 47.163 2.76609C47.163 3.3434 47.163 3.91945 47.163 4.52323C50.0887 4.52323 52.916 4.51567 55.7445 4.52575C57.5647 4.53206 59.1504 5.6829 59.7618 7.40727C59.8374 7.62029 59.9206 7.8308 60.0013 8.04382V61.019C59.7177 61.6165 59.4945 62.2518 59.1391 62.8026C58.5202 63.7581 57.5332 64.2157 56.4794 64.5434L56.4782 64.5421ZM55.6903 21.7505H4.32983V60.2148H55.6903V21.7505Z" fill="#3B3393"/>
<path d="M31.8433 41.9795H28.1566V53.2855H31.8433V41.9795ZM37.0048 26.0527V33.6228H31.8433V28.7072H28.1566V37.0638H34.7436C36.1199 37.0638 37.0048 37.9978 37.0048 39.325V55.94C37.0048 57.2672 36.1199 58.2012 34.7436 58.2012H25.2563C23.8799 58.2012 22.9951 57.2672 22.9951 55.94V26.0527C22.9951 24.7255 23.8799 23.7915 25.2563 23.7915H34.7436C36.1199 23.7915 37.0048 24.7255 37.0048 26.0527Z" fill="#3B3393"/>
</g>
<defs>
<clipPath id="clip0_178_24620">
<rect width="60" height="64.3021" fill="white" transform="translate(0 0.239746)"/>
</clipPath>
</defs>
</svg>
