<svg width="112" height="34" viewBox="0 0 112 34" fill="none" xmlns="http://www.w3.org/2000/svg">
<path fill-rule="evenodd" clip-rule="evenodd" d="M61.5873 17.3453H59.4701V3.45671H61.5873V8.90084H61.9381C63.0875 8.90084 63.4625 7.65472 63.4625 6.72316V3.45671H65.5797V6.63851C65.5797 8.10237 65.0352 9.19119 63.9827 9.91707C65.1199 10.7155 65.5797 11.7318 65.5797 13.1956V17.3574H63.4625V13.0989C63.4625 12.2036 63.0391 11.1148 61.9623 11.1148H61.5873V17.3453ZM97.6275 17.3453V3.45671H99.5148V11.5745L101.692 3.45671H104.064V17.3453H102.152V7.67892L99.5511 17.3574H97.6275V17.3453ZM105.564 17.3332V3.4446H107.451V11.5624L109.629 3.4446H112V17.3332H110.088V7.66685L107.487 17.3453H105.564V17.3332ZM111.117 0.141846V1.76298H106.447V0.141846H111.117ZM92.2196 17.3211H90.1025V3.43252H92.2196V8.87666H92.5705C93.7198 8.87666 94.0948 7.63053 94.0948 6.69898V3.43252H96.212V6.61429C96.212 8.07815 95.6676 9.16701 94.6151 9.89289C95.7523 10.6914 96.212 11.7076 96.212 13.1715V17.3332H94.0948V13.0747C94.0948 12.1794 93.6714 11.0906 92.5947 11.0906H92.2196V17.3211ZM53.784 17.2969H51.6669V3.4083H57.97V8.98554H55.8044V5.39241H53.784V15.3128H55.8044V11.7197H57.97V17.2969H53.7961H53.784ZM84.4164 17.2969H82.2992V3.4083H88.6023V8.98554H86.4367V5.39241H84.4164V15.3128H86.4367V11.7197H88.6023V17.2969H84.4285H84.4164ZM48.0012 5.39241H46.0171V15.3128H48.0012V5.39241ZM45.9808 17.2969H43.8636V3.4083H50.1667V17.2969H45.9929H45.9808ZM71.2295 5.39241H69.2454V15.3128H71.2295V5.39241ZM69.2091 17.2969H67.0919V3.4083H73.395V17.2969H69.2212H69.2091ZM77.0123 5.39241V9.1186C77.7987 9.16699 78.7666 9.11862 78.7666 7.70314V6.44493V5.40448H77.0244L77.0123 5.39241ZM77.0123 11.1027V15.3128H78.7545C78.7545 14.4175 78.7545 13.5102 78.7545 12.615C78.7545 11.1995 77.7987 11.0664 77.0003 11.1027H77.0123ZM80.8837 5.85214V7.55793C80.8837 8.67096 80.424 9.46944 79.6981 9.98966C80.4724 10.6067 80.8837 11.5624 80.8837 12.748V17.2969C79.5892 17.2969 78.3068 17.2969 77.0123 17.2969H74.8952V3.4083H77.0123C78.3068 3.4083 79.5892 3.4083 80.8837 3.4083V5.85214ZM37.8751 12.7117C38.4316 9.7477 39.1575 6.42075 39.4841 3.43252H42.3393V17.3211H40.4883V11.8286L40.706 6.86837C40.4399 8.46532 39.3994 14.345 38.0686 17.1759H37.8751H37.6815C36.3507 14.345 35.3103 8.46532 35.0441 6.86837L35.2619 11.8286V17.3211H33.4109V3.43252H36.266C36.6048 6.42075 37.3186 9.7356 37.8751 12.7117Z" fill="currentColor"/>
<path fill-rule="evenodd" clip-rule="evenodd" d="M58.8654 21.507V27.6892C59.6518 27.7375 60.6196 27.5924 60.6196 26.1769V24.9187V21.507H58.8775H58.8654ZM62.7368 24.3501V26.0559C62.7368 28.1973 61.6358 29.6853 59.5671 29.6853H58.8654V33.4236H56.7482V19.5351C58.7444 19.5351 60.7406 19.5351 62.7489 19.5351V24.3622L62.7368 24.3501ZM63.3175 19.5229H69.8746V21.507H67.6607V33.4116H65.5435V21.507H63.3296V19.5229H63.3175ZM53.1309 21.507H51.1468V31.4275H53.1309V21.507ZM51.1105 33.4116H48.9933V19.5229H55.2964V33.4116H51.1226H51.1105ZM35.5161 33.4116H33.3989V19.5229H39.702V25.1001H37.5365V21.507H35.5161V31.4275H37.5365V27.8343H39.702V33.4116H35.5282H35.5161ZM43.3073 33.4116H41.1901V19.5229H47.4932V33.4116H45.3276V21.507H43.3073V33.4116Z" fill="currentColor"/>
<path fill-rule="evenodd" clip-rule="evenodd" d="M14.8772 26.189C15.3974 26.8302 15.966 27.4351 16.5709 28.0037C19.3777 30.6774 22.9829 32.601 27.0116 33.4115V31.0161C23.6725 30.2418 20.6843 28.5965 18.313 26.3583C17.5388 25.6203 16.825 24.8219 16.1959 23.9629L14.8772 26.201V26.189Z" fill="currentColor"/>
<path fill-rule="evenodd" clip-rule="evenodd" d="M6.16652 23.6964C8.8039 21.1921 10.4371 17.7441 10.4371 13.9453V3.43213H12.893V13.9453C12.893 15.7963 13.2076 17.9619 13.7641 19.6435C14.3327 17.9619 14.6352 15.7963 14.6352 13.9453V3.43213H17.0911V13.9453C17.0911 17.7441 18.7243 21.1921 21.3617 23.6964C22.9344 25.1845 24.858 26.3459 26.9994 27.0354V29.4914C24.1685 28.7292 21.6399 27.2895 19.6196 25.3538C18.0952 23.9021 16.8612 22.1841 16.0023 20.2847C15.3611 21.9301 14.6473 23.5028 13.7641 24.6884C12.8809 23.5028 12.1672 21.9301 11.526 20.2847C10.667 22.1841 9.433 23.9142 7.90864 25.3538C5.88826 27.2774 3.34766 28.7292 0.528809 29.4914V27.0354C2.67017 26.3459 4.59377 25.1966 6.16652 23.6964Z" fill="currentColor"/>
<path fill-rule="evenodd" clip-rule="evenodd" d="M21.0348 13.7279C21.0348 16.4984 22.2204 19.0027 24.144 20.8295C24.9787 21.6158 25.9466 22.2813 27.0112 22.7773V25.33C25.2691 24.7009 23.7084 23.7209 22.4139 22.4869C20.0548 20.2367 18.5789 17.1396 18.5789 13.7279V11.3567H21.0348V13.7279Z" fill="currentColor"/>
<path fill-rule="evenodd" clip-rule="evenodd" d="M6.49281 11.3567H8.94872V13.7279C8.94872 17.1396 7.48485 20.2367 5.11363 22.4869C3.81914 23.7209 2.24638 24.7009 0.516357 25.33V22.7773C1.58099 22.2813 2.54883 21.6279 3.3836 20.8295C5.30719 19.0027 6.49281 16.4863 6.49281 13.7279V11.3567Z" fill="currentColor"/>
<path fill-rule="evenodd" clip-rule="evenodd" d="M11.3203 23.9506C10.6912 24.8095 9.98953 25.608 9.20316 26.346C6.84403 28.5962 3.84371 30.2295 0.504639 31.0037V33.3992C4.5212 32.5886 8.12644 30.665 10.9332 27.9913C11.5381 27.4227 12.0946 26.8178 12.6269 26.1766L11.3082 23.9385L11.3203 23.9506Z" fill="currentColor"/>
</svg>
