<svg width="23" height="34" viewBox="0 0 23 34" fill="none" xmlns="http://www.w3.org/2000/svg">
<g clip-path="url(#clip0_178_25514)">
<path d="M22.976 13.3587C22.7873 14.8212 22.2919 16.2129 21.6314 17.5338C21.2776 18.2179 20.9945 18.9491 20.6407 19.6332C20.216 20.506 19.7443 21.3551 19.2489 22.2043C17.8571 24.6339 16.3709 26.9927 14.814 29.3044C13.7996 30.7905 12.7617 32.2529 11.7237 33.7154C11.6058 33.8805 11.5114 33.9749 11.3463 33.7154C10.615 32.7011 9.88374 31.7104 9.19964 30.6725C8.86938 30.1772 8.51553 29.7054 8.18528 29.2336C7.6663 28.4552 7.14733 27.6532 6.62835 26.8748C5.56682 25.318 4.64682 23.6904 3.70323 22.0628C3.11348 21.0249 2.52374 19.9634 2.05194 18.8548C1.91041 18.5246 1.6981 18.2415 1.55656 17.9113C1.24989 17.2508 0.919637 16.5903 0.707329 15.8827C0.495022 15.175 0.329893 14.4674 0.164765 13.7597C0.0468165 13.2408 -0.0239527 12.7218 -0.000362978 12.2029C0.0232268 11.3301 0.211945 10.4574 0.400663 9.60818C0.730919 8.14571 1.32066 6.80118 2.21707 5.59818C3.32579 4.08853 4.694 2.88553 6.36887 2.05994C7.52476 1.49382 8.75143 1.1164 10.0253 0.951287C10.3084 0.90411 10.615 0.927698 10.8981 0.856934H12.2427C12.7145 1.02205 13.2099 0.998463 13.6817 1.09282C15.3801 1.42305 16.9135 2.08352 18.3053 3.09782C19.7914 4.18288 20.9945 5.551 21.7966 7.22577C22.2919 8.26365 22.693 9.34871 22.8345 10.5045C22.8817 10.8348 22.9289 11.1414 22.976 11.4717C22.976 11.5424 22.9289 11.6368 22.9996 11.684V13.0757C22.9996 13.0757 22.9525 13.2644 22.976 13.3587ZM11.7001 18.6425C13.5637 18.7368 15.0971 17.8169 16.3473 16.378C17.5976 14.9391 18.0694 13.17 17.7627 11.283C17.5268 9.79689 16.7719 8.54671 15.616 7.57959C14.0827 6.28224 12.2899 5.81047 10.3319 6.1643C8.06733 6.54171 5.00066 8.71183 5.23656 12.8634C5.40169 15.8591 8.09092 18.7604 11.7001 18.6661V18.6425Z" fill="#EBEBEB"/>
</g>
<defs>
<clipPath id="clip0_178_25514">
<rect width="23" height="33" fill="white" transform="translate(0 0.856934)"/>
</clipPath>
</defs>
</svg>
