<svg width="60" height="86" viewBox="0 0 60 86" fill="none" xmlns="http://www.w3.org/2000/svg">
<path d="M59.9378 32.5804C59.4455 36.3917 58.1532 40.0186 56.4301 43.461C55.507 45.2437 54.7686 47.1494 53.8455 48.9321C52.7378 51.2066 51.507 53.4196 50.2147 55.6326C46.584 61.9643 42.707 68.1115 38.6455 74.1358C35.9993 78.0086 33.2916 81.8199 30.584 85.6312C30.2763 86.0615 30.0301 86.3074 29.5993 85.6312C27.6916 82.9878 25.784 80.406 23.9993 77.7012C23.1378 76.4103 22.2147 75.1808 21.3532 73.9514C19.9993 71.9228 18.6455 69.8327 17.2916 67.8041C14.5224 63.747 12.1224 59.5054 9.66088 55.2638C8.12242 52.559 6.58395 49.7927 5.35319 46.9035C4.98395 46.0429 4.43011 45.3052 4.06088 44.4446C3.26088 42.7234 2.39934 41.0021 1.84549 39.158C1.29165 37.3138 0.860878 35.4696 0.430109 33.6254C0.122417 32.273 -0.0621988 30.9207 -0.000660298 29.5683C0.0608782 27.2938 0.553186 25.0193 1.04549 22.8063C1.90703 18.995 3.44549 15.4911 5.78395 12.356C8.67626 8.42173 12.2455 5.28663 16.6147 3.1351C19.6301 1.65976 22.8301 0.676197 26.1532 0.24589C26.8916 0.122945 27.6916 0.184417 28.4301 0H31.9378C33.1686 0.430307 34.4609 0.368835 35.6916 0.614725C40.1224 1.47534 44.1224 3.19657 47.7532 5.83989C51.6301 8.66762 54.7686 12.233 56.8609 16.5976C58.1532 19.3024 59.1993 22.1301 59.5686 25.1422C59.6916 26.0029 59.8147 26.802 59.9378 27.6626C59.9378 27.847 59.8147 28.0929 59.9993 28.2159V31.8427C59.9993 31.8427 59.8763 32.3345 59.9378 32.5804ZM30.5224 46.3502C35.384 46.5961 39.384 44.1987 42.6455 40.4489C45.907 36.6991 47.1378 32.0886 46.3378 27.1708C45.7224 23.2981 43.7532 20.04 40.7378 17.5197C36.7378 14.1387 32.0609 12.9092 26.9532 13.8313C21.0455 14.8149 13.0455 20.4703 13.6609 31.2895C14.0916 39.0965 21.107 46.6576 30.5224 46.4117V46.3502Z" fill="#3B3393"/>
</svg>
